<?xml version="1.0" encoding="UTF-8"?><!DOCTYPE svg PUBLIC "-//W3C//DTD SVG 1.1//EN" "http://www.w3.org/Graphics/SVG/1.1/DTD/svg11.dtd"><svg xmlns="http://www.w3.org/2000/svg" xmlns:xlink="http://www.w3.org/1999/xlink"><symbol id="accordeon-arrow" viewBox="0 0 26 14"><g fill="none"><path d="M24.195.314 13 11.472 1.802.314c-.2-.2-.468-.312-.748-.312A1.059 1.059 0 0 0 .08.655a1.062 1.062 0 0 0 .226 1.148l11.911 11.872c.21.208.49.325.782.325.292 0 .572-.117.782-.325l11.91-11.87A1.043 1.043 0 0 0 26 1.058a1.063 1.063 0 0 0-.308-.746c-.2-.2-.469-.312-.748-.312-.28 0-.549.112-.749.312v.002Z" fill="#000"/></g></symbol><symbol id="cart" viewBox="0 0 28 28"><g fill="none"><path fill-rule="evenodd" clip-rule="evenodd" d="M12.578.032c-1.97.242-3.61.755-5.29 1.651-1.235.66-2.05 1.279-3.204 2.434-1.243 1.244-1.88 2.12-2.621 3.604a13.7 13.7 0 0 0-1.32 3.988c-.125.713-.143 1-.143 2.259 0 1.221.018 1.529.129 2.187.32 1.908.906 3.5 1.892 5.146.55.917 1.17 1.676 2.198 2.69 1.273 1.254 2.1 1.84 3.699 2.615.973.472 1.644.718 2.647.97 1.085.271 1.992.395 3.1.42a13.99 13.99 0 0 0 7.59-2.034c1.084-.654 1.611-1.083 2.733-2.22.876-.89 1.109-1.167 1.605-1.912 2.125-3.187 2.876-6.951 2.121-10.635-.348-1.7-.94-3.162-1.904-4.7a11.983 11.983 0 0 0-1.848-2.31c-1.017-1.018-1.657-1.53-2.75-2.196C19.483.932 17.203.181 15.31.044c-.733-.053-2.34-.06-2.73-.012Zm2.86 1.07c3.002.335 6.054 1.89 8.05 4.102 1.47 1.631 2.532 3.615 3.043 5.688.283 1.148.34 1.68.34 3.133 0 1.143-.024 1.492-.143 2.144a12.67 12.67 0 0 1-1.199 3.606 12.456 12.456 0 0 1-2.566 3.502 12.788 12.788 0 0 1-7.423 3.541c-1.615.189-3.396.067-4.875-.332-.96-.26-2.122-.73-3.02-1.225-1.606-.884-3.189-2.318-4.268-3.867a13.325 13.325 0 0 1-1.668-3.332 12.967 12.967 0 0 1-.551-5.724C1.462 9.89 2.46 7.606 4.075 5.663c.305-.367 1.207-1.272 1.61-1.615 1.88-1.6 4.331-2.65 6.898-2.958.402-.049 2.39-.04 2.854.011ZM6.744 6.972c-.021.281-.011.775.016.803.01.009.384.024.832.035l.816.02 1.309 3.998 1.309 3.998-.505 1.032c-.596 1.216-.708 1.475-.713 1.655-.006.17.087.297.3.415l.153.085 4.51.01 4.51.009v-1.148h-4.016c-2.21 0-4.018-.008-4.018-.017 0-.008.126-.253.28-.542l.278-.527 3.516-.008 3.517-.007.223-.6c.648-1.74 2.137-5.855 2.137-5.906 0-.06-.8-.37-.956-.37-.06 0-.087.055-.281.565-.119.31-.224.594-.235.629l-.02.064-4.517-.007-4.518-.007-.726-2.201c-.4-1.211-.726-2.211-.727-2.223 0-.012-.553-.022-1.227-.022H6.765l-.02.267Zm11.328 5.333c.648.01 1.185.026 1.193.035.008.008-.074.258-.182.556l-.198.542h-7.48l-.168-.537c-.093-.295-.16-.546-.149-.557.049-.048 4.834-.075 6.984-.04Zm-.267 2.253c.594.017.648.023.648.07 0 .027-.084.272-.186.544s-.186.498-.186.502c0 .015-4.355 0-5.144-.017l-.784-.018-.18-.5a8.47 8.47 0 0 1-.18-.535c-.002-.025.096-.037.348-.044.727-.019 5.043-.02 5.664-.002Zm-6.635 5.656c-.402.087-.747.48-.808.923-.083.598.322 1.134.938 1.24.372.064.757-.095 1.014-.42.214-.267.281-.535.22-.87a1.07 1.07 0 0 0-.885-.887c-.19-.037-.257-.035-.48.014Zm6.782-.015c-.208.03-.354.116-.539.315-.19.206-.3.406-.332.61-.112.705.6 1.394 1.293 1.251.37-.076.624-.269.786-.596.103-.21.108-.231.108-.507 0-.267-.007-.301-.094-.478-.116-.235-.345-.453-.557-.532a1.558 1.558 0 0 0-.665-.063Z" fill="#1A1A1A"/></g></symbol><symbol id="clock" viewBox="0 0 43 45"><g fill="none"><path fill-rule="evenodd" clip-rule="evenodd" d="M18.182.098c-1.06.326-1.716 1.157-1.708 2.167.004.397.049.576.242.957.269.531.537.781 1.13 1.052.396.182.469.19 2.038.213l1.628.024-.02 1.246-.02 1.245-.412.055c-.777.103-2.356.434-3.214.674-4.041 1.127-7.91 3.81-10.366 7.188-.534.736-1.182 1.777-1.283 2.063-.27.762.155 1.712.917 2.049.402.177 1.105.176 1.5-.001.38-.171.598-.409 1.044-1.133 1.87-3.043 5.12-5.55 8.652-6.679 2.486-.793 4.78-.996 7.37-.652 3.866.515 7.492 2.454 9.974 5.334 3.595 4.171 4.734 9.844 3.003 14.956-1.958 5.783-7.185 9.945-13.409 10.676-1.512.178-3.88.049-5.384-.293-1.608-.365-3.481-1.12-4.908-1.98-3.505-2.112-6.12-5.585-7.136-9.479a14.508 14.508 0 0 1-.216-.89c0-.036.792-.064 1.798-.064h1.797l.18-.176c.225-.217.306-.509.203-.728-.091-.194-4.346-5.782-4.64-6.095-.656-.695-1.868-.601-2.451.19-.125.17-1.194 1.567-2.375 3.105C.006 27.87-.03 27.923.007 28.208a.685.685 0 0 0 .234.454c.19.16.237.164 1.976.164h1.78l.088.453c.393 2.007 1.21 4.207 2.211 5.951 2.59 4.513 6.817 7.749 11.885 9.098 2.5.665 5.225.841 7.866.507 4.227-.535 7.976-2.315 11.042-5.244 3.195-3.054 5.182-6.908 5.81-11.274.151-1.045.129-3.677-.04-4.756-.8-5.115-3.456-9.632-7.39-12.57-1.953-1.46-4.322-2.615-6.749-3.291-.65-.181-1.706-.374-3.455-.63l-.243-.036V4.512l1.588-.025c1.534-.024 1.603-.031 2.009-.216.543-.247.959-.616 1.19-1.056.155-.296.184-.452.184-1.004 0-.59-.022-.692-.224-1.047a2.645 2.645 0 0 0-.584-.67c-.659-.506-.566-.498-5.915-.493-3.642.004-4.86.027-5.088.097ZM8.613 6.893c-1.914.412-3.241 1.93-3.272 3.742-.006.32.035.76.09.98.114.452.505 1.256.595 1.221.032-.012.271-.268.53-.567 1.169-1.347 2.854-2.786 4.539-3.875 1.026-.664 1.022-.65.323-1.02-.844-.445-2.026-.649-2.805-.48Zm27.642.04c-.486.102-1.418.536-1.622.755-.11.119-.065.161.709.652 1.58 1.003 3.621 2.767 4.831 4.174.168.195.34.334.382.309.042-.025.186-.3.32-.609.208-.482.248-.672.277-1.325.03-.684.013-.822-.165-1.335-.676-1.954-2.668-3.057-4.732-2.622ZM22.63 15.238c-.367.196-.572.4-.761.754-.158.296-.164.4-.196 3.255l-.034 2.95-.308.145c-.871.412-1.766 1.46-2.083 2.44-.242.747-.238 1.84.01 2.578.431 1.278 1.47 2.287 2.787 2.706.714.228 1.967.245 2.603.037 1.478-.484 2.578-1.597 2.95-2.989.148-.547.147-1.552 0-2.102-.3-1.114-1.144-2.159-2.147-2.655l-.506-.25.046-2.868.046-2.868-.213-.4c-.315-.588-.705-.827-1.395-.852-.418-.016-.596.01-.8.12Zm1.69 9.343a1.704 1.704 0 0 1 .32 2.709c-.86.835-2.272.607-2.855-.462-.222-.407-.22-1.123.005-1.538.19-.35.635-.738 1-.872.432-.159 1.116-.086 1.53.163Z" fill="#000"/><path fill-rule="evenodd" clip-rule="evenodd" d="M18.182.098c-1.06.326-1.716 1.157-1.708 2.167.004.397.049.576.242.957.269.531.537.781 1.13 1.052.396.182.469.19 2.038.213l1.628.024-.02 1.246-.02 1.245-.412.055c-.777.103-2.356.434-3.214.674-4.041 1.127-7.91 3.81-10.366 7.188-.534.736-1.182 1.777-1.283 2.063-.27.762.155 1.712.917 2.049.402.177 1.105.176 1.5-.001.38-.171.598-.409 1.044-1.133 1.87-3.043 5.12-5.55 8.652-6.679 2.486-.793 4.78-.996 7.37-.652 3.866.515 7.492 2.454 9.974 5.334 3.595 4.171 4.734 9.844 3.003 14.956-1.958 5.783-7.185 9.945-13.409 10.676-1.512.178-3.88.049-5.384-.293-1.608-.365-3.481-1.12-4.908-1.98-3.505-2.112-6.12-5.585-7.136-9.479a14.508 14.508 0 0 1-.216-.89c0-.036.792-.064 1.798-.064h1.797l.18-.176c.225-.217.306-.509.203-.728-.091-.194-4.346-5.782-4.64-6.095-.656-.695-1.868-.601-2.451.19-.125.17-1.194 1.567-2.375 3.105C.006 27.87-.03 27.923.007 28.208a.685.685 0 0 0 .234.454c.19.16.237.164 1.976.164h1.78l.088.453c.393 2.007 1.21 4.207 2.211 5.951 2.59 4.513 6.817 7.749 11.885 9.098 2.5.665 5.225.841 7.866.507 4.227-.535 7.976-2.315 11.042-5.244 3.195-3.054 5.182-6.908 5.81-11.274.151-1.045.129-3.677-.04-4.756-.8-5.115-3.456-9.632-7.39-12.57-1.953-1.46-4.322-2.615-6.749-3.291-.65-.181-1.706-.374-3.455-.63l-.243-.036V4.512l1.588-.025c1.534-.024 1.603-.031 2.009-.216.543-.247.959-.616 1.19-1.056.155-.296.184-.452.184-1.004 0-.59-.022-.692-.224-1.047a2.645 2.645 0 0 0-.584-.67c-.659-.506-.566-.498-5.915-.493-3.642.004-4.86.027-5.088.097Z" fill="#EA0000"/></g></symbol><symbol id="close" viewBox="0 0 34 34"><g fill="none"><path d="m1 1 32 32M33 1 1 33" stroke="#000"/></g></symbol><symbol id="count-arrow" viewBox="0 0 18 10"><g fill="none"><path d="M17.59 8.206 9.442.663a.788.788 0 0 0-.535-.207c-.2 0-.392.074-.535.207L.218 8.206a.634.634 0 0 0 0 .95c.137.126.321.197.512.197a.754.754 0 0 0 .512-.198l7.664-7.093 7.662 7.093c.137.127.32.197.511.197s.375-.07.512-.197a.634.634 0 0 0 0-.95Z" fill="#000" fill-opacity=".5"/></g></symbol><symbol id="footer-logo" viewBox="0 0 67 67"><g fill="none"><circle cx="33.5" cy="33.5" r="33.5" fill="#FAFAFA"/><path fill-rule="evenodd" clip-rule="evenodd" d="M30.4 4.158c-7.998.815-15.742 5.225-20.56 11.71C7 19.691 5.144 24.01 4.348 28.648c-.463 2.7-.463 7.023 0 9.724C6.065 48.388 12.72 56.752 22.15 60.746c6.82 2.889 15 3.007 21.985.318 3.814-1.468 7.222-3.705 10.241-6.722 4.45-4.448 7.188-9.713 8.28-15.927.279-1.58.344-2.513.344-4.904 0-2.39-.065-3.325-.343-4.904-1.1-6.252-3.857-11.533-8.351-15.997-6.364-6.32-14.97-9.362-23.906-8.452ZM39.147 6.3c9.428 2.049 16.78 8.296 20.353 17.291 1.949 4.906 2.342 11.38 1.01 16.617-1.45 5.703-4.64 10.822-9.02 14.48-4.213 3.518-9.236 5.725-14.55 6.393-1.905.239-6.73.113-8.346-.219-2.938-.602-4.649-1.165-7.146-2.353-6.373-3.03-11.233-8.292-13.928-15.078-1.95-4.913-2.343-11.344-1.012-16.617 1.415-5.609 4.677-10.87 8.947-14.428 4.005-3.338 8.732-5.514 13.655-6.287a36.96 36.96 0 0 0 1.366-.233c.125-.029 1.73-.03 3.565-.002 2.884.044 3.579.104 5.106.436Zm-7.457 4.98a604.968 604.968 0 0 1-2.604 3.093l-.555.648-1.004-.759-1.003-.758-.49.343c-.269.189-1.308.965-2.31 1.724-1.001.759-1.899 1.426-1.995 1.481-.096.056-1.486-.648-3.088-1.564-1.603-.916-2.967-1.665-3.033-1.665-.256 0-2.78 2.811-3.773 4.204-1.487 2.086-2.996 5.02-3.58 6.965l-.103.34h50.716l-.102-.34c-.643-2.136-2.232-5.145-3.938-7.459-.793-1.075-3.209-3.71-3.4-3.71-.058 0-1.263.658-2.677 1.463-1.415.805-2.64 1.464-2.725 1.464-.084 0-1.091-.734-2.24-1.632L41.7 13.486l-1.011.658-1.01.657-2.895-2.989c-1.592-1.643-2.929-2.985-2.97-2.982-.042.003-.998 1.106-2.125 2.45Zm4.42.755c1.468 1.551 1.997 2.191 1.62 1.962-.97-.588-1.15-.557-2.112.359-.48.456-.923.83-.987.83-.063 0-.271-.147-.462-.325l-.346-.325-.893.325c-.49.178-.96.325-1.044.325-.084 0-.216-.222-.293-.493-.124-.434-.215-.5-.77-.568l-.63-.075 1.835-2.158c1.009-1.188 1.85-2.159 1.868-2.159.02 0 1.015 1.036 2.214 2.302Zm6.745 2.87c.983.854 1.118 1.013 1.122 1.32.002.161-.087.149-.396-.053-.309-.202-.425-.218-.516-.072-.065.104-.26.152-.436.106-.2-.052-.369.005-.452.152-.151.27-.301.19-1.31-.698-.452-.397-.533-.537-.365-.635.118-.069.454-.296.746-.505.292-.209.572-.383.621-.387.05-.004.493.343.986.772Zm-14.79.526c.783.635 1.646 1.334 1.918 1.552.27.22.493.442.493.494 0 .053-.305.172-.678.266-.397.1-.745.296-.84.473-.248.463-.746.381-.933-.153-.18-.516-.183-.517-.568-.278-.23.144-.358.118-.688-.14-.338-.266-.478-.293-.855-.162-.592.206-1.204-.16-1.204-.72 0-.42-.095-.418-1.199.033-.284.116-.535.193-.557.17-.058-.057 3.443-2.69 3.576-2.69.06 0 .75.52 1.534 1.155ZM15.227 27.595c-1.521.37-2.409 1.446-2.661 3.23-.36 2.541.97 4.655 2.93 4.655.879 0 1.387-.192 1.86-.702l.374-.402v1.574c-.002 1.775-.183 2.635-.603 2.86-.802.428-1.824-.124-1.824-.985 0-.681.444-1.008 1.112-.816.599.171.556.178.556-.09 0-.44-.577-.833-1.22-.833-.91 0-1.359.503-1.359 1.523 0 .688.062.84.533 1.31.529.529.538.531 1.684.473 1.096-.055 1.175-.084 1.65-.601.68-.74.837-1.603.837-4.606v-2.491h-.604c-.537 0-.614.046-.69.416-.366 1.777-.878 2.491-1.787 2.491-1.22 0-1.96-1.116-1.96-2.954 0-1.34.242-2.192.822-2.894 1.016-1.231 2.853-.96 2.853.42 0 .209-.104.483-.231.61-.207.206-.2.247.066.389.702.375 1.227-.01 1.227-.9 0-1.351-1.672-2.137-3.565-1.677Zm26.385.842c-.23.351-.23.407 0 .758.167.253.388.378.67.378.527 0 .786-.249.786-.757s-.259-.757-.786-.757c-.282 0-.503.125-.67.378Zm-7.547-.126c-.055.056-.1.714-.1 1.462 0 1.31-.011 1.352-.278 1.111-.65-.587-2.198-.123-2.678.803-.236.456-.142.614.177.296.119-.118.197-.111.282.025.072.116-.016.296-.227.467-.414.335-.614.355-.614.062 0-.172-.101-.188-.493-.075-.614.175-.57.183-.57-.093 0-.447-.585-1.374-.98-1.554-.22-.1-.703-.181-1.075-.181-.562 0-.776.09-1.282.547-.334.301-.607.656-.607.788 0 .186.04.2.182.058.244-.244.424-.23.424.034 0 .12-.214.384-.475.588-.39.304-.489.506-.547 1.11-.211 2.197 1.451 3.795 3.103 2.983.745-.366 1.096-1.011 1.314-2.42.15-.972.233-1.178.516-1.283.33-.121.338-.097.338.975 0 .838.08 1.259.341 1.774.636 1.258 2.05 1.548 2.943.604l.416-.441.27.442c.47.773 1.434.757 2.032-.034l.267-.353.408.407c.991.99 2.205.64 2.953-.852.386-.77.46-1.112.51-2.368.085-2.099-.325-3.06-1.187-2.787-.648.205-.526 1.1.17 1.238.431.087.435.098.435 1.18 0 1.2-.29 2.373-.696 2.822-.344.38-1.066.377-1.27-.005-.09-.166-.158-1.315-.158-2.65v-2.357h-1.214v2.053c0 1.229.057 2.019.142 1.966.267-.164.32.205.102.705l-.219.5-.013-.454-.013-.454-.3.492c-.37.606-.858.654-1.068.104-.081-.214-.148-1.952-.148-3.862V28.21h-.506c-.278 0-.55.046-.607.101Zm10.47 0c-.056.056-.102 1.516-.102 3.245 0 2.487.042 3.155.202 3.193.156.038.167.167.048.58l-.153.53-.105-.53c-.057-.292-.113-.408-.124-.259-.01.15-.196.448-.412.663-.365.366-.409.375-.645.14-.21-.21-.26-.663-.3-2.746l-.049-2.494h-1.193v2.583c0 2.825.125 3.358.852 3.633.624.237.929.17 1.494-.324.453-.398.55-.431.63-.221.052.136.297.351.543.478.57.295 1.238.158 1.624-.332l.29-.37.458.458c.685.683 1.609.552 2.13-.303l.282-.463.26.397c.57.869 1.983 1.026 3.09.343.486-.3 1.395-1.382 1.395-1.66 0-.282-.417-.107-.576.242-.222.488-1.008.881-1.76.881-.47 0-.682-.092-.962-.417-.503-.584-.418-1.172.188-1.297 1.23-.253 2.048-1.048 2.048-1.992 0-1.154-.476-1.624-1.654-1.63-.756-.005-.864.04-1.371.573-.585.613-.884 1.381-.924 2.375-.038.935-.008 1.16.146 1.066.224-.138.351.202.24.644-.093.369-.116.38-.258.127-.146-.26-.167-.256-.333.078-.25.503-.933.567-1.058.1-.052-.192-.095-1.934-.096-3.87l-.002-3.522h-1.214v3.256c0 2.525.043 3.248.19 3.219.208-.042.177.558-.048.946-.097.166-.134.105-.138-.227l-.005-.454-.3.492c-.34.557-.819.647-1.06.2-.095-.179-.156-1.692-.156-3.863V28.21h-.506c-.278 0-.551.046-.607.101ZM21.038 31.09c-1.048.863-1.414 3.205-.723 4.63.622 1.282 2.24 1.645 3.208.72.495-.474.883-1.61.883-2.585 0-.594.045-.677.44-.815.242-.084.473-.278.512-.43.064-.244.017-.262-.385-.147-.57.164-.656.111-.773-.472-.052-.257-.294-.668-.54-.912-.38-.38-.56-.444-1.256-.444-.679 0-.902.074-1.366.455Zm2.218.44c.243.268.245.319.02.66-.284.434-.183.816.253.954.282.09.301.181.213 1.018-.142 1.358-.75 2.063-1.531 1.776-.617-.226-.883-.819-.875-1.952.008-1.296.236-2.037.75-2.44.487-.383.833-.388 1.17-.016Zm5.266-.001c.348.28.35.296.08.594-.35.387-.276.814.175 1.01.319.139.34.218.252.91-.054.416-.211.995-.35 1.286-.212.445-.342.538-.808.577-.41.034-.633-.038-.855-.276-.976-1.045-.324-4.39.855-4.39.162 0 .455.13.651.289Zm5.165-.038c.236.213.277.491.275 1.855-.002 1.726-.152 2.24-.734 2.53-1.093.545-1.798-.924-1.388-2.894.29-1.39 1.17-2.102 1.847-1.491Zm19.06-.069c.1.1.183.408.183.684 0 .654-.784 1.52-1.501 1.657l-.514.098.103-.59c.134-.767.387-1.433.67-1.766.261-.306.795-.347 1.06-.083ZM8.173 41.776c0 .048.272.78.605 1.628 1.22 3.11 3.305 6.27 5.767 8.747 4.066 4.09 8.833 6.57 14.565 7.58 2.258.398 6.214.43 8.42.07 8.337-1.366 15.123-6.093 19.31-13.452.653-1.148 2.008-4.233 2.008-4.573 0-.048-11.402-.087-25.338-.087-13.935 0-25.337.04-25.337.087Zm22.112 5.1 3.225 3.216 3.257-3.248c1.79-1.786 3.29-3.214 3.332-3.172.041.042-1.39 1.537-3.18 3.324l-3.257 3.248 3.299 3.295c1.814 1.812 3.231 3.295 3.15 3.295-.083 0-1.601-1.448-3.375-3.217L33.51 50.4l-3.256 3.248c-1.791 1.787-3.29 3.214-3.332 3.172-.042-.041 1.39-1.537 3.18-3.323l3.256-3.248-3.298-3.296c-1.814-1.812-3.232-3.295-3.15-3.295.082 0 1.6 1.448 3.375 3.217Zm4.336-2.439c.122.194.024.455-.439 1.173-.328.508-.63.923-.672.923-.11 0-1.214-1.736-1.214-1.91 0-.366.413-.521 1.273-.479.631.031.942.118 1.052.293Zm-1.667.029c0 .111.09.202.2.202.15 0 .157-.051.032-.202-.093-.111-.183-.202-.2-.202-.018 0-.032.09-.032.202Zm.84.063c-.188.24-.183.245.058.057.252-.198.333-.322.208-.322-.032 0-.151.12-.266.265Zm.388 10.808c.775 1.201.671 1.421-.672 1.421s-1.447-.22-.672-1.421c.328-.508.63-.923.672-.923.042 0 .344.415.672.923Z" fill="#2E2E2E"/></g></symbol><symbol id="magnifier"><g fill="none"><path d="m19.473 18.127-6.34-6.34a7.258 7.258 0 0 0 1.515-4.463 7.28 7.28 0 0 0-2.146-5.178A7.27 7.27 0 0 0 7.324 0a7.28 7.28 0 0 0-5.178 2.146A7.266 7.266 0 0 0 0 7.324a7.28 7.28 0 0 0 2.146 5.178 7.266 7.266 0 0 0 5.178 2.146 7.265 7.265 0 0 0 4.46-1.513l6.341 6.338a.2.2 0 0 0 .283 0l1.065-1.062a.2.2 0 0 0 0-.284Zm-8.282-6.936a5.44 5.44 0 0 1-3.867 1.602 5.44 5.44 0 0 1-3.867-1.602 5.44 5.44 0 0 1-1.602-3.867c0-1.46.57-2.834 1.602-3.867a5.44 5.44 0 0 1 3.867-1.602c1.46 0 2.835.567 3.867 1.602a5.44 5.44 0 0 1 1.602 3.867c0 1.46-.569 2.835-1.602 3.867Z" fill="#fff"/></g></symbol><symbol id="shild" viewBox="0 0 36 42"><g fill="none"><path fill-rule="evenodd" clip-rule="evenodd" d="M13.66 1.79c-2.15.978-5.955 2.697-8.456 3.818C2.704 6.73.517 7.788.344 7.96c-.474.474-.452 15.333.027 17.852.969 5.098 3.289 8.532 7.778 11.514 1.886 1.252 6.354 3.428 8.778 4.274l1.145.4 2.43-.963c8.111-3.214 12.432-6.817 14.285-11.912 1.101-3.029 1.217-4.245 1.213-12.79-.002-4.39-.086-8.112-.187-8.27C35.583 7.703 18.5-.015 17.963 0c-.216.006-2.152.81-4.303 1.79Zm9.847 3.785c3.002 1.354 6.397 2.883 7.544 3.396l2.087.935-.096 7.586c-.088 6.996-.133 7.714-.584 9.223-.615 2.059-1.305 3.422-2.484 4.911-1.715 2.166-5.628 4.663-10.178 6.494L18 38.843l-2.002-.822c-6.063-2.487-9.695-5.228-11.378-8.586C3.2 26.6 3.1 25.875 2.995 17.496l-.096-7.582 7.447-3.378c4.097-1.858 7.505-3.388 7.575-3.4.07-.013 2.584 1.084 5.586 2.439ZM16.64 9.112c-1.09.278-2.68 1.29-3.3 2.101-.873 1.143-1.243 2.25-1.243 3.718 0 1.096-.074 1.375-.39 1.468-1.115.329-1.992.946-2.352 1.655-.353.695-.39 1.374-.335 6.185l.061 5.404.841.84.841.84 6.644.07c4.158.043 6.94-.018 7.435-.163.435-.127 1.089-.541 1.453-.92l.66-.688.062-5.394c.055-4.8.018-5.48-.335-6.174-.36-.709-1.238-1.326-2.352-1.655-.318-.094-.392-.377-.396-1.516-.008-2.305-1.147-4.193-3.137-5.2-1.178-.595-3.051-.852-4.157-.57Zm3.305 3.496c.676.602 1.09 1.691 1.09 2.874v1.01H15v-1.126c0-2.2 1.231-3.424 3.292-3.272.739.054 1.347.244 1.65.514Zm4.166 11.3-.06 4.516H11.985l-.061-4.516-.06-4.516H24.17l-.06 4.516Zm-7.197-.898c-.722 1.028-.09 2.403 1.104 2.403 1.224 0 1.935-1.725 1.044-2.53-.6-.541-1.726-.475-2.148.127Z" fill="#000"/><path fill-rule="evenodd" clip-rule="evenodd" d="M13.66 1.79c-2.15.978-5.955 2.697-8.456 3.818C2.704 6.73.517 7.788.344 7.96c-.474.474-.452 15.333.027 17.852.969 5.098 3.289 8.532 7.778 11.514 1.886 1.252 6.354 3.428 8.778 4.274l1.145.4 2.43-.963c8.111-3.214 12.432-6.817 14.285-11.912 1.101-3.029 1.217-4.245 1.213-12.79-.002-4.39-.086-8.112-.187-8.27C35.583 7.703 18.5-.015 17.963 0c-.216.006-2.152.81-4.303 1.79Zm9.847 3.785c3.002 1.354 6.397 2.883 7.544 3.396l2.087.935-.096 7.586c-.088 6.996-.133 7.714-.584 9.223-.615 2.059-1.305 3.422-2.484 4.911-1.715 2.166-5.628 4.663-10.178 6.494L18 38.843l-2.002-.822c-6.063-2.487-9.695-5.228-11.378-8.586C3.2 26.6 3.1 25.875 2.995 17.496l-.096-7.582 7.447-3.378c4.097-1.858 7.505-3.388 7.575-3.4.07-.013 2.584 1.084 5.586 2.439Z" fill="#EA0000"/></g></symbol><symbol id="site-logo" viewBox="0 0 60 60"><g fill="none"><path fill-rule="evenodd" clip-rule="evenodd" d="M28.69.02c-2.61.118-5.153.56-7.605 1.32A30.076 30.076 0 0 0 2.154 18.807 29.86 29.86 0 0 0 .062 28a32.256 32.256 0 0 0 0 4.003C.581 40.025 4.345 47.525 10.5 52.799a30.134 30.134 0 0 0 7.365 4.647 30.069 30.069 0 0 0 14.938 2.425 29.815 29.815 0 0 0 12.12-3.843 30.14 30.14 0 0 0 10.005-9.336 30.03 30.03 0 0 0 3.543-7.215 30.134 30.134 0 0 0 .129-18.563 29.996 29.996 0 0 0-7.365-12.108C46.067 3.632 39.267.54 32.003.06A37.2 37.2 0 0 0 28.69.02Zm-.815 16.976 1.866 1.866V31.271l-2.006 2.007-2.007 2.006h-8.085l-.788-2.363c-.433-1.3-.784-2.365-.78-2.37.004-.003.668.218 1.475.492l1.468.498h3.959l.72-.36.72-.36.36-.72.361-.72v-4.39l.002-4.387-.286-.578-.286-.577-.576-.288-.575-.289h-2.892l-.435.436-.436.435v4.013l.57 1.14c.314.628.571 1.15.571 1.162 0 .013-1.057.02-3.152.02-2.098 0-3.152-.007-3.152-.02 0-.012.19-.399.42-.861l.42-.84V20.552l-.14-.844-.141-.844 1.867-1.867 1.867-1.867h7.225l1.866 1.866Zm15.772.497c.434 1.3.785 2.366.78 2.37-.003.003-.666-.218-1.474-.492l-1.467-.498-1.985-.001-1.985-.001-.713.356-.713.356-.362.726-.363.725v8.786l.288.576.288.575.573.285.572.285h2.892l.435-.435.435-.435v-4.009l-.578-1.158-.578-1.158 3.153-.005c1.735-.003 3.158 0 3.165.006.006.006-.18.394-.414.861l-.425.85v3.816l.14.838.141.839-1.866 1.866-1.867 1.867h-7.225l-1.866-1.866-1.866-1.866V19.143l2.006-2.007 2.006-2.006h8.086l.787 2.363Zm-30.198 22.9c.362 1.08.417 1.258.385 1.245a28.635 28.635 0 0 0-.412-.141l-.379-.129H11.97l-.207.102-.207.102-.093.189-.094.188v2.46l.075.153c.074.151.077.154.23.23l.154.079h.811l.115-.115.116-.114v-1.133l-.15-.3a6.694 6.694 0 0 1-.15-.31c0-.005.387-.01.86-.01.474 0 .86.005.86.01 0 .007-.049.11-.11.23l-.11.22v.536c.001.434.008.577.039.756.02.12.034.224.03.23l-.523.525-.516.516h-1.98l-.516-.516-.516-.515v-3.443l.556-.555.556-.555H13.428l.022.065Zm5.35.45.515.515V44.881l-.515.515-.515.516H16.22l-.525-.527-.525-.526v-1.74l.001-1.74.525-.526.524-.525h2.062l.516.515Zm5.413.01.526.525v3.503l-.515.515-.516.516h-2.081l-.515-.516-.516-.515V41.38l.525-.526.525-.525h2.041l.526.525Zm5.454.03.555.555v3.363l-.555.555-.555.556h-1.546c-.96 0-1.546-.008-1.546-.02 0-.01.036-.164.08-.343l.08-.325v-4.218l-.08-.318a6.653 6.653 0 0 1-.08-.34c0-.014.484-.02 1.546-.02h1.545l.556.555Zm2.71-.49c-.007.035-.026.18-.044.32l-.032.254.193.696.394 1.417c.11.396.212.792.225.88l.025.16.015-.12c.008-.066.195-.773.416-1.57l.402-1.452-.033-.28a6.304 6.304 0 0 1-.033-.325v-.045h.772c.425 0 .77.006.765.015l-.155.305c-.16.313-.114.17-1.447 4.528l-.225.736-.519-.005-.518-.005-.405-1.321-.755-2.463c-.332-1.082-.358-1.157-.503-1.445a3.877 3.877 0 0 1-.152-.325c0-.013.277-.02.813-.02h.812l-.011.065Zm5.09-.039c0 .015-.031.147-.07.295l-.07.27V45.31l.07.28c.039.153.07.288.07.3 0 .014-.24.02-.75.02h-.752l.013-.054.08-.33.068-.274V40.986l-.08-.318c-.044-.175-.08-.323-.08-.33a13 13 0 0 1 .75-.01c.609 0 .751.005.751.026Zm2.822.005c0 .017-.04.192-.09.389l-.09.359v3.656l.056.054.056.054h1.24l.416-.139c.329-.11.413-.132.405-.105l-.218.654-.207.62-1.556.006c-1.476.005-1.555.003-1.545-.03l.081-.32.071-.284v-4.307l-.07-.284-.082-.32c-.01-.032.035-.034.761-.034.682 0 .772.003.772.03Zm3.983 0c0 .017-.04.192-.09.389l-.09.359v3.656l.056.054.056.054h1.24l.415-.139c.33-.11.414-.132.405-.105l-.218.654-.207.62-1.555.006c-1.476.005-1.556.003-1.546-.03.006-.02.043-.163.082-.32l.07-.284v-4.307l-.07-.284-.082-.32c-.01-.032.036-.034.762-.034.682 0 .772.003.772.03Zm5.822.57c.108.324.195.592.193.594a6.347 6.347 0 0 1-.362-.115l-.358-.12h-.71c-.632 0-.714.004-.746.034-.034.03-.037.073-.037.523 0 .429.005.496.033.528.03.032.07.036.366.036h.333l.299-.1.304-.1c.004 0 .006.302.006.67 0 .37-.007.671-.016.671-.008 0-.135-.04-.282-.09l-.266-.089-.35-.002c-.307-.002-.354.002-.388.032-.037.033-.039.07-.039.699v.663l.056.054.056.054h1.4l.415-.139c.228-.076.415-.137.414-.135 0 .002-.097.296-.217.654l-.216.65-1.635.006-1.634.005.012-.055.08-.328.069-.273v-4.27l-.08-.318c-.045-.175-.08-.324-.08-.33 0-.006.716-.008 1.591-.005l1.592.005.197.59Zm-33.327.441-.156.08-.079.163-.079.164v2.614l.08.16c.08.159.081.16.24.24l.16.08h.642l.16-.08c.158-.08.16-.081.24-.24l.08-.16v-2.606l-.083-.17-.083-.169-.157-.079-.157-.079-.326.001-.325.001-.157.08Zm5.417.003-.164.083-.071.155-.072.154v2.645l.075.152c.074.151.077.154.23.23l.154.079h.662l.155-.078c.153-.077.156-.08.23-.23l.075-.153v-2.65l-.072-.152-.07-.152-.17-.084-.169-.084-.315.002h-.315l-.163.083Zm5.26-.038-.043.046v3.362l.066.064.066.064h.829l.2-.1.2-.1.1-.2.1-.2v-2.383l-.1-.2-.1-.2-.2-.1-.2-.1h-.437c-.431 0-.438.001-.48.047Zm1.277 8.45 1.451 1.45 1.456-1.455c1.163-1.163 1.46-1.45 1.48-1.43.02.02-.267.317-1.43 1.48l-1.456 1.456 1.451 1.45c.799.799 1.448 1.46 1.445 1.472a.032.032 0 0 1-.03.02c-.012 0-.637-.613-1.39-1.361a335.077 335.077 0 0 0-1.452-1.441l-.085-.08-1.45 1.45c-1.158 1.159-1.455 1.446-1.475 1.425-.02-.02.266-.315 1.42-1.47a71.177 71.177 0 0 0 1.446-1.467c0-.012-.651-.671-1.448-1.465-1.358-1.353-1.482-1.486-1.394-1.486.006 0 .663.653 1.462 1.451Zm1.769-1.227c-.009.014-.064.07-.124.125-.099.091-.115.1-.2.096-.084-.003-.102-.014-.212-.125l-.121-.12h.336c.263 0 .333.005.32.024Zm-.568.106c.06.06.098.11.085.11a14.315 14.315 0 0 1-.396 0c-.016 0 .173-.22.19-.22.007 0 .061.05.121.11Zm.82.114c0 .009-.094.016-.21.016a.785.785 0 0 1-.21-.015c0-.008.047-.062.105-.12l.104-.105.106.104a.66.66 0 0 1 .106.12Zm-.032.06c-.008.014-.13.2-.273.413-.215.323-.263.384-.284.36-.036-.037-.531-.77-.531-.785 0-.007.248-.012.552-.012.435 0 .548.005.536.025Zm-.25 4.684c.145.217.263.4.263.405 0 .006-.248.01-.55.01-.303 0-.551-.005-.551-.012 0-.031.55-.827.562-.813.007.008.132.192.276.41Zm-.438.454c0 .01-.05.062-.112.116l-.112.099-.098-.104a.732.732 0 0 1-.098-.117.86.86 0 0 1 .21-.013c.116 0 .21.009.21.019Zm.366.097a.835.835 0 0 1 .115.13c0 .008-.149.014-.33.014-.182 0-.33-.005-.33-.012 0-.008.055-.066.122-.13.114-.109.13-.118.216-.118s.1.008.207.116Zm.355-.101a.712.712 0 0 1-.105.12l-.104.106-.106-.105a.66.66 0 0 1-.105-.12c0-.009.094-.016.21-.016.115 0 .21.007.21.015Z" fill="#000"/></g></symbol><symbol id="slider-black-arrow" viewBox="0 0 16 31"><g fill="none"><path d="m2.063.367 13.565 14.198c.239.25.372.584.372.932 0 .349-.133.683-.372.932L2.063 30.633A1.19 1.19 0 0 1 1.21 31a1.17 1.17 0 0 1-.854-.367A1.29 1.29 0 0 1 0 29.74c0-.334.128-.654.356-.892l12.757-13.352L.356 2.15a1.29 1.29 0 0 1-.355-.89C.001.924.13.605.356.366A1.19 1.19 0 0 1 1.21 0a1.17 1.17 0 0 1 .853.367Z" fill="#000"/></g></symbol><symbol id="slider-white-arrow" viewBox="0 0 19 35"><g fill="none"><path d="m2.45 34.585 16.109-16.03c.283-.281.441-.659.441-1.052s-.158-.77-.441-1.052L2.449.415a1.452 1.452 0 0 0-2.027 0A1.42 1.42 0 0 0 0 1.422c0 .376.152.738.423 1.007L15.57 17.503.423 32.573c-.27.27-.421.63-.421 1.007a1.419 1.419 0 0 0 .884 1.312 1.452 1.452 0 0 0 1.564-.307Z" fill="#fff"/></g></symbol><symbol id="tree" viewBox="0 0 41 41"><g fill="none"><path fill-rule="evenodd" clip-rule="evenodd" d="M15.431.384C9.695 1.827 4.562 6.029 1.944 11.424.357 14.694-.129 17.219.028 21.39c.214 5.704 1.925 9.655 5.912 13.648 3.824 3.832 7.872 5.65 13.184 5.92 3.665.188 6.615-.26 9.172-1.392 6.424-2.845 10.473-7.589 12.151-14.237.893-3.537.688-8.313-.497-11.556-2.266-6.2-6.445-10.44-12.54-12.725C25.22.228 24.47.105 21.096.02c-2.68-.069-4.38.04-5.665.364Zm9.845 3.23c7.535 2.29 12.67 9.123 12.67 16.856 0 4.797-1.66 8.73-5.198 12.309-3.5 3.539-7.386 5.186-12.238 5.186-6.839 0-12.668-3.602-15.766-9.74-2.368-4.69-2.322-10.947.114-15.711 3.006-5.88 8.89-9.493 15.516-9.526 1.993-.01 3.408.171 4.902.625Zm-7.244 3.038c-3.276.602-6.121 2.538-7.41 5.042-.501.972-.593 1.613-.483 3.376.075 1.197.226 2.384.336 2.637.136.314-.15.688-.896 1.171-1.431.927-2.393 3.026-2.123 4.63.294 1.738 1.23 3.1 2.13 3.1 1.16 0 1.45-.844.759-2.202-.322-.632-.585-1.352-.585-1.598 0-.756 1.492-2.278 2.59-2.64 1.563-.517 1.709-.848 1.217-2.747-1.014-3.916 1.389-6.465 6.33-6.716 2.813-.142 4.955.635 6.451 2.342.959 1.093.959 1.094.768 3.785l-.19 2.692 1.348.598c1.769.784 2.45 1.823 2.187 3.338-.453 2.613-.393 2.987.498 3.09.646.075.923-.094 1.276-.778 1.272-2.464.664-5.12-1.543-6.74-1.155-.846-1.172-.886-.81-1.939 1.364-3.958-.942-8.06-5.488-9.765-1.989-.745-4.524-1.015-6.362-.676Zm.759 15.488c-.443.581-1.056 1.72-1.363 2.532l-.558 1.476-1.883.185c-1.423.139-2.198.412-3.172 1.117-2.894 2.094-1.21 3.367 5.987 4.526 1.127.181 1.149.211 1.149 1.541 0 1.043.142 1.433.613 1.685 1.165.625 2.145-.365 2.145-2.168 0-.68.162-.92.689-1.016l2.68-.493c2.314-.424 4.79-1.416 5.017-2.01.456-1.19-2.73-3.214-5.057-3.214H23.66l-.708-1.71c-.848-2.05-2.006-3.508-2.787-3.508-.313 0-.932.476-1.374 1.057Z" fill="#000"/><path fill-rule="evenodd" clip-rule="evenodd" d="M15.431.384C9.695 1.827 4.562 6.029 1.944 11.424.357 14.694-.129 17.219.028 21.39c.214 5.704 1.925 9.655 5.912 13.648 3.824 3.832 7.872 5.65 13.184 5.92 3.665.188 6.615-.26 9.172-1.392 6.424-2.845 10.473-7.589 12.151-14.237.893-3.537.688-8.313-.497-11.556-2.266-6.2-6.445-10.44-12.54-12.725C25.22.228 24.47.105 21.096.02c-2.68-.069-4.38.04-5.665.364Zm9.845 3.23c7.535 2.29 12.67 9.123 12.67 16.856 0 4.797-1.66 8.73-5.198 12.309-3.5 3.539-7.386 5.186-12.238 5.186-6.839 0-12.668-3.602-15.766-9.74-2.368-4.69-2.322-10.947.114-15.711 3.006-5.88 8.89-9.493 15.516-9.526 1.993-.01 3.408.171 4.902.625Z" fill="#EA0000"/></g></symbol></svg>