<svg width="" height="" viewBox="0 0 26 14" fill="none" xmlns="http://www.w3.org/2000/svg">
<path d="M24.1953 0.313879L12.9989 11.4717L1.80238 0.313879C1.60234 0.114122 1.33379 0.00229003 1.05416 0.00229003C0.774521 0.00229003 0.505979 0.114122 0.305935 0.313879C0.209074 0.410901 0.132123 0.526707 0.079591 0.654514C0.0270585 0.782321 0 0.919561 0 1.05819C0 1.19683 0.0270585 1.33406 0.079591 1.46187C0.132123 1.58968 0.209074 1.70548 0.305935 1.80251L12.217 13.6749C12.4262 13.8833 12.7068 14 12.9989 14C13.291 14 13.5715 13.8833 13.7807 13.6749L25.6918 1.8048C25.7893 1.7077 25.8669 1.59161 25.9198 1.46338C25.9727 1.33515 26 1.19738 26 1.05819C26 0.919009 25.9727 0.781235 25.9198 0.653004C25.8669 0.524773 25.7893 0.408683 25.6918 0.311588C25.4917 0.111831 25.2232 0 24.9436 0C24.6639 0 24.3954 0.111831 24.1953 0.311588V0.313879Z" fill="black"/>
</svg>
