<svg width="" height="" viewBox="0 0 28 28" fill="none" xmlns="http://www.w3.org/2000/svg">
<path fill-rule="evenodd" clip-rule="evenodd" d="M12.5781 0.032209C10.6083 0.27444 8.96705 0.78672 7.28853 1.68326C6.05317 2.34306 5.23867 2.96169 4.08444 4.11687C2.84128 5.36102 2.20408 6.23709 1.46271 7.72129C0.789027 9.07002 0.400518 10.2443 0.143275 11.7094C0.0181274 12.4222 0 12.7081 0 13.9679C0 15.1891 0.0180988 15.4967 0.12875 16.1549C0.449439 18.0632 1.03509 19.6557 2.0212 21.3009C2.57072 22.2177 3.19145 22.9773 4.21896 23.9903C5.49157 25.245 6.31954 25.8305 7.91755 26.6057C8.89146 27.0781 9.56203 27.3237 10.5648 27.5752C11.6496 27.8473 12.5575 27.9707 13.6646 27.9962C16.3356 28.058 18.9435 27.3593 21.2558 25.9624C22.3388 25.3081 22.8664 24.8791 23.9875 23.7412C24.8639 22.8515 25.0966 22.5746 25.5932 21.8298C27.7182 18.6431 28.4689 14.8786 27.7141 11.1948C27.3657 9.49445 26.7738 8.03311 25.8102 6.4943C25.2471 5.59504 24.7464 4.96935 23.962 4.18457C22.9452 3.16721 22.305 2.65593 21.2129 1.98902C19.4813 0.931579 17.2013 0.180555 15.3086 0.0440733C14.5758 -0.0087871 12.9681 -0.0157627 12.5781 0.032209ZM15.4373 1.10145C18.4398 1.437 21.4921 2.99271 23.4872 5.20438C24.9586 6.83545 26.02 8.81898 26.531 10.8923C26.814 12.0401 26.8717 12.5725 26.871 14.0251C26.8704 15.1677 26.8471 15.5172 26.7277 16.1692C26.4809 17.5169 26.1289 18.5759 25.5291 19.7747C24.8506 21.1306 24.0641 22.2041 22.9626 23.2771C20.9443 25.2433 18.3252 26.4928 15.5399 26.8182C13.925 27.0069 12.1435 26.8855 10.6651 26.4861C9.7059 26.2269 8.54349 25.7554 7.64593 25.2614C6.03871 24.377 4.45605 22.9432 3.37667 21.3938C2.6836 20.399 2.08605 19.2051 1.70898 18.0619C1.09845 16.2106 0.914375 14.2994 1.15784 12.3384C1.46174 9.89014 2.45989 7.60591 4.0748 5.66291C4.38011 5.29561 5.28228 4.3912 5.6858 4.04794C7.56581 2.44866 10.0162 1.39766 12.5831 1.08956C12.9854 1.04127 14.9727 1.04956 15.4373 1.10145ZM6.7449 6.97304C6.72383 7.25416 6.73401 7.74825 6.76146 7.77564C6.77038 7.7845 7.14474 7.80046 7.59337 7.81103L8.40911 7.8303L9.71797 11.8289L11.0269 15.8274L10.5215 16.8593C9.92609 18.0749 9.81432 18.3343 9.80875 18.5142C9.80349 18.6835 9.89558 18.8108 10.1086 18.9288L10.2621 19.0138L14.7725 19.0234L19.2829 19.0329V18.4588V17.8846H15.2657C13.0563 17.8846 11.2485 17.8773 11.2485 17.8684C11.2485 17.8595 11.374 17.6153 11.5273 17.3257L11.8061 16.7992L15.3224 16.7915L18.8386 16.7839L19.0622 16.1835C19.7099 14.4439 21.1986 10.3287 21.1986 10.2777C21.1986 10.2175 20.3985 9.90832 20.2426 9.90832C20.1827 9.90832 20.1555 9.96313 19.9615 10.4729C19.8433 10.7835 19.7379 11.0666 19.7273 11.102L19.7079 11.1664L15.19 11.1592L10.6722 11.1519L9.9461 8.95061C9.54676 7.73988 9.21966 6.73962 9.21924 6.72784C9.21883 6.71606 8.66644 6.7064 7.99169 6.7064H6.76492L6.7449 6.97304ZM18.0732 12.3058C18.721 12.3166 19.2578 12.3323 19.2661 12.3406C19.2744 12.3489 19.1923 12.5994 19.0837 12.8974L18.8863 13.439H15.1466H11.4068L11.2378 12.9023C11.1448 12.6072 11.0781 12.3563 11.0895 12.3448C11.1377 12.2966 15.9231 12.2699 18.0732 12.3058ZM17.8058 14.5586C18.4004 14.5758 18.4537 14.5816 18.4537 14.6282C18.4537 14.6561 18.3701 14.9013 18.2679 15.173C18.1657 15.4447 18.082 15.6706 18.082 15.6751C18.082 15.6902 13.7271 15.6757 12.938 15.658L12.1543 15.6403L11.9744 15.14C11.8755 14.8649 11.7939 14.624 11.7932 14.6049C11.7922 14.5798 11.8896 14.5675 12.142 14.561C12.869 14.5424 17.1848 14.5405 17.8058 14.5586ZM11.1708 20.2148C10.769 20.3021 10.4242 20.6959 10.3628 21.1377C10.2797 21.736 10.6853 22.2725 11.3005 22.378C11.6728 22.4418 12.0577 22.2829 12.3153 21.9589C12.5288 21.6905 12.5963 21.4234 12.5354 21.0878C12.4505 20.6197 12.1214 20.2899 11.65 20.2005C11.4602 20.1645 11.3933 20.1665 11.1708 20.2148ZM17.9528 20.1999C17.7448 20.2305 17.5987 20.316 17.4142 20.5153C17.2235 20.7212 17.1146 20.9214 17.082 21.1258C16.9697 21.8301 17.6822 22.5192 18.375 22.3761C18.7455 22.2996 18.9986 22.1074 19.1606 21.7797C19.264 21.5706 19.2686 21.5487 19.2686 21.2732C19.2686 21.0056 19.262 20.9717 19.175 20.7951C19.0593 20.5601 18.8304 20.3416 18.6181 20.2634C18.4404 20.1979 18.1528 20.1704 17.9528 20.1999Z" fill="#1A1A1A"/>
</svg>
