<svg width="" height="" viewBox="0 0 43 45" fill="none" xmlns="http://www.w3.org/2000/svg">
<path fill-rule="evenodd" clip-rule="evenodd" d="M18.1819 0.0979213C17.1217 0.423613 16.4662 1.25545 16.4744 2.26462C16.4776 2.66249 16.5227 2.84121 16.7158 3.22231C16.985 3.75336 17.2535 4.00339 17.8455 4.27425C18.242 4.45565 18.3147 4.4632 19.8843 4.48666L21.5119 4.51098L21.4915 5.75653L21.4711 7.00207L21.0599 7.05682C20.2827 7.1603 18.704 7.4913 17.8455 7.73086C13.8046 8.8584 9.93518 11.5419 7.48021 14.9193C6.94565 15.6548 6.29776 16.6957 6.19654 16.9816C5.92661 17.7444 6.35196 18.6941 7.11422 19.0305C7.51564 19.2076 8.21885 19.2073 8.61347 19.0298C8.99314 18.859 9.21217 18.6213 9.65777 17.8966C11.5289 14.8537 14.7776 12.3462 18.3104 11.2182C20.796 10.4246 23.0904 10.2216 25.68 10.5662C29.5461 11.0807 33.1724 13.0198 35.6542 15.8997C39.2488 20.071 40.3879 25.744 38.6573 30.8557C36.6993 36.6393 31.4719 40.8011 25.248 41.532C23.7357 41.7096 21.3688 41.5809 19.8639 41.2392C18.2561 40.8743 16.3827 40.1183 14.9562 39.2591C11.4507 37.1474 8.83556 33.674 7.81951 29.7801C7.70111 29.3265 7.6043 28.9262 7.6043 28.8905C7.6043 28.8542 8.39639 28.8256 9.40175 28.8256H11.1993L11.3797 28.6503C11.6038 28.4327 11.6845 28.1411 11.5816 27.9216C11.491 27.7284 7.23599 22.1398 6.94138 21.827C6.28632 21.1316 5.07375 21.2256 4.4909 22.017C4.36554 22.1871 3.29686 23.5844 2.11606 25.1221C0.00651598 27.8691 -0.0302618 27.923 0.00696536 28.2082C0.0321572 28.4007 0.110947 28.5538 0.240644 28.6621C0.431788 28.8219 0.477761 28.8256 2.21652 28.8256H3.9967L4.08543 29.2795C4.47759 31.2856 5.29494 33.4856 6.29634 35.2305C8.88602 39.7429 13.1131 42.9787 18.181 44.328C20.6809 44.9935 23.4061 45.1692 26.0469 44.8351C30.2745 44.3002 34.0232 42.5196 37.0886 39.5907C40.2843 36.537 42.2708 32.6832 42.8995 28.3173C43.05 27.2717 43.0275 24.6396 42.8587 23.5608C42.0586 18.4464 39.4034 13.9292 35.4699 10.9904C33.5163 9.53077 31.147 8.37578 28.7203 7.7C28.0698 7.51882 27.0144 7.32623 25.2648 7.06939L25.0218 7.03366V5.77243V4.51113L26.6103 4.48673C28.1443 4.4632 28.2133 4.45579 28.619 4.27098C29.1617 4.02372 29.5775 3.65482 29.8085 3.21548C29.9642 2.91942 29.9929 2.76278 29.9929 2.21117C29.9929 1.62094 29.9712 1.51949 29.7687 1.16388C29.6432 0.943484 29.3859 0.648292 29.1845 0.493544C28.5265 -0.0119497 28.6192 -0.00425217 23.2702 0.00119417C19.6276 0.00489768 18.4093 0.0280629 18.1819 0.0979213ZM8.61347 6.89307C6.69926 7.30517 5.37186 8.82289 5.34092 10.6349C5.33546 10.9544 5.37613 11.3955 5.43137 11.6152C5.54499 12.067 5.93648 12.8714 6.02581 12.8364C6.05818 12.8238 6.29716 12.5683 6.55693 12.2688C7.7248 10.922 9.40989 9.48299 11.0946 8.39386C12.121 7.73035 12.1166 7.74415 11.4183 7.37489C10.5741 6.92858 9.39188 6.72547 8.61347 6.89307ZM36.2555 6.93214C35.769 7.03482 34.8372 7.46886 34.6332 7.6878C34.5223 7.80689 34.5684 7.8493 35.3418 8.3402C36.9216 9.34276 38.9633 11.1067 40.1733 12.5143C40.341 12.7093 40.5126 12.8482 40.5548 12.8228C40.5969 12.7976 40.7409 12.5236 40.8747 12.2141C41.0829 11.7325 41.1228 11.5417 41.1517 10.889C41.1821 10.2053 41.1651 10.0673 40.9871 9.5535C40.311 7.60037 38.3187 6.49665 36.2555 6.93214ZM22.6297 15.2392C22.2633 15.4349 22.0578 15.6386 21.869 15.9932C21.7114 16.2892 21.7051 16.3935 21.6727 19.2482L21.6392 22.1973L21.3309 22.343C20.4596 22.7547 19.5648 23.8024 19.2476 24.7826C19.0056 25.5303 19.0102 26.6236 19.2586 27.3608C19.6892 28.6392 20.7281 29.6485 22.0446 30.0674C22.7588 30.2947 24.0124 30.3125 24.6481 30.1044C26.1262 29.6204 27.2256 28.5067 27.5987 27.1153C27.7455 26.5675 27.745 25.5628 27.5976 25.0128C27.2989 23.8988 26.454 22.8541 25.4508 22.3583L24.9455 22.1085L24.9913 19.2401L25.037 16.3717L24.8239 15.9727C24.509 15.3836 24.1194 15.1452 23.4286 15.1195C23.0109 15.1039 22.8331 15.1306 22.6297 15.2392ZM24.3205 24.5824C25.3065 25.1746 25.4624 26.4925 24.6408 27.2906C23.7809 28.126 22.3682 27.8976 21.7846 26.8286C21.5628 26.4223 21.5655 25.7061 21.7904 25.2905C21.9794 24.9412 22.4248 24.5527 22.7895 24.4189C23.2217 24.2604 23.906 24.3334 24.3205 24.5824Z" fill="black"/>
<path fill-rule="evenodd" clip-rule="evenodd" d="M18.1819 0.0979213C17.1217 0.423613 16.4662 1.25545 16.4744 2.26462C16.4776 2.66249 16.5227 2.84121 16.7158 3.22231C16.985 3.75336 17.2535 4.00339 17.8455 4.27425C18.242 4.45565 18.3147 4.4632 19.8843 4.48666L21.5119 4.51098L21.4915 5.75653L21.4711 7.00207L21.0599 7.05682C20.2827 7.1603 18.704 7.4913 17.8455 7.73086C13.8046 8.8584 9.93518 11.5419 7.48021 14.9193C6.94565 15.6548 6.29776 16.6957 6.19654 16.9816C5.92661 17.7444 6.35196 18.6941 7.11422 19.0305C7.51564 19.2076 8.21885 19.2073 8.61347 19.0298C8.99314 18.859 9.21217 18.6213 9.65777 17.8966C11.5289 14.8537 14.7776 12.3462 18.3104 11.2182C20.796 10.4246 23.0904 10.2216 25.68 10.5662C29.5461 11.0807 33.1724 13.0198 35.6542 15.8997C39.2488 20.071 40.3879 25.744 38.6573 30.8557C36.6993 36.6393 31.4719 40.8011 25.248 41.532C23.7357 41.7096 21.3688 41.5809 19.8639 41.2392C18.2561 40.8743 16.3827 40.1183 14.9562 39.2591C11.4507 37.1474 8.83556 33.674 7.81951 29.7801C7.70111 29.3265 7.6043 28.9262 7.6043 28.8905C7.6043 28.8542 8.39639 28.8256 9.40175 28.8256H11.1993L11.3797 28.6503C11.6038 28.4327 11.6845 28.1411 11.5816 27.9216C11.491 27.7284 7.23599 22.1398 6.94138 21.827C6.28632 21.1316 5.07375 21.2256 4.4909 22.017C4.36554 22.1871 3.29686 23.5844 2.11606 25.1221C0.00651598 27.8691 -0.0302618 27.923 0.00696536 28.2082C0.0321572 28.4007 0.110947 28.5538 0.240644 28.6621C0.431788 28.8219 0.477761 28.8256 2.21652 28.8256H3.9967L4.08543 29.2795C4.47759 31.2856 5.29494 33.4856 6.29634 35.2305C8.88602 39.7429 13.1131 42.9787 18.181 44.328C20.6809 44.9935 23.4061 45.1692 26.0469 44.8351C30.2745 44.3002 34.0232 42.5196 37.0886 39.5907C40.2843 36.537 42.2708 32.6832 42.8995 28.3173C43.05 27.2717 43.0275 24.6396 42.8587 23.5608C42.0586 18.4464 39.4034 13.9292 35.4699 10.9904C33.5163 9.53077 31.147 8.37578 28.7203 7.7C28.0698 7.51882 27.0144 7.32623 25.2648 7.06939L25.0218 7.03366V5.77243V4.51113L26.6103 4.48673C28.1443 4.4632 28.2133 4.45579 28.619 4.27098C29.1617 4.02372 29.5775 3.65482 29.8085 3.21548C29.9642 2.91942 29.9929 2.76278 29.9929 2.21117C29.9929 1.62094 29.9712 1.51949 29.7687 1.16388C29.6432 0.943484 29.3859 0.648292 29.1845 0.493544C28.5265 -0.0119497 28.6192 -0.00425217 23.2702 0.00119417C19.6276 0.00489768 18.4093 0.0280629 18.1819 0.0979213Z" fill="#EA0000"/>
</svg>
