<svg width="" height="" viewBox="0 0 18 10" fill="none" xmlns="http://www.w3.org/2000/svg">
<path d="M17.5906 8.20597L9.44101 0.662689C9.29787 0.530202 9.10588 0.456055 8.90599 0.456055C8.70609 0.456055 8.51411 0.530202 8.37096 0.662689L0.218325 8.20597C0.151571 8.26768 0.0985146 8.34147 0.0622864 8.42298C0.0260601 8.50448 0.0073967 8.59205 0.0073967 8.68052C0.0073967 8.76898 0.0260601 8.85655 0.0622864 8.93806C0.0985146 9.01956 0.151571 9.09335 0.218325 9.15506C0.355221 9.28203 0.538992 9.35311 0.730356 9.35311C0.921721 9.35311 1.10549 9.28203 1.24239 9.15506L8.90599 2.06159L16.5681 9.15506C16.7049 9.2816 16.8883 9.3524 17.0793 9.3524C17.2703 9.3524 17.4538 9.2816 17.5906 9.15506C17.6573 9.09335 17.7104 9.01956 17.7466 8.93806C17.7828 8.85655 17.8015 8.76898 17.8015 8.68052C17.8015 8.59205 17.7828 8.50448 17.7466 8.42298C17.7104 8.34147 17.6573 8.26768 17.5906 8.20597Z" fill="black" fill-opacity="0.5"/>
</svg>
