<svg width="" height="" viewBox="0 0 67 67" fill="none" xmlns="http://www.w3.org/2000/svg">
<circle cx="33.5" cy="33.5" r="33.5" fill="#FAFAFA"/>
<path fill-rule="evenodd" clip-rule="evenodd" d="M30.3999 4.15824C22.402 4.97288 14.6583 9.3831 9.84068 15.8671C6.99878 19.6921 5.14277 24.0107 4.34729 28.6495C3.88424 31.3498 3.88424 35.6722 4.34729 38.3725C6.06478 48.3882 12.7199 56.7519 22.1505 60.746C28.9707 63.6348 37.1494 63.7532 44.1345 61.0642C47.9494 59.5958 51.3569 57.359 54.3761 54.3415C58.8263 49.8942 61.5641 44.6286 62.6568 38.4151C62.9346 36.8358 63 35.9019 63 33.511C63 31.1201 62.9346 30.1862 62.6568 28.6069C61.5573 22.3546 58.8002 17.0736 54.3057 12.6102C47.9422 6.2908 39.3357 3.24802 30.3999 4.15824ZM39.1465 6.29958C48.5745 8.34885 55.9279 14.596 59.5001 23.591C61.4485 28.4971 61.8419 34.9704 60.5099 40.2081C59.0598 45.9106 55.8709 51.0298 51.4892 54.6888C47.2769 58.2065 42.2545 60.4129 36.9391 61.0807C35.0345 61.32 30.2104 61.1937 28.5935 60.8624C25.6564 60.2605 23.945 59.6968 21.4483 58.5094C15.0752 55.4786 10.2151 50.2171 7.52025 43.431C5.56911 38.5182 5.17736 32.0874 6.50781 26.8139C7.92291 21.205 11.1854 15.9441 15.4553 12.3856C19.4603 9.04779 24.1867 6.87176 29.1102 6.09861C29.7361 6.00032 30.3506 5.89582 30.4757 5.86644C30.6009 5.83721 32.2054 5.83615 34.0412 5.86432C36.9248 5.90839 37.6195 5.96776 39.1465 6.29958ZM31.6895 11.2809C30.563 12.6255 29.3914 14.0172 29.0861 14.3732L28.531 15.0208L27.5273 14.2625L26.5238 13.504L26.0342 13.8472C25.7651 14.0359 24.7255 14.8115 23.7241 15.5707C22.7228 16.3299 21.825 16.9968 21.729 17.0524C21.6331 17.1081 20.2433 16.4042 18.6407 15.488C17.038 14.5721 15.6735 13.8225 15.6084 13.8225C15.3518 13.8225 12.8287 16.6344 11.8349 18.0275C10.3477 20.1129 8.83947 23.0467 8.25458 24.992L8.15217 25.3327H33.5102H58.8682L58.7656 24.992C58.1229 22.8565 56.5341 19.8471 54.8278 17.5331C54.0354 16.4585 51.6195 13.8225 51.4271 13.8225C51.3695 13.8225 50.165 14.4812 48.7506 15.2863C47.3361 16.0913 46.1103 16.7501 46.0264 16.7502C45.9425 16.7504 44.9348 16.0161 43.7869 15.1183L41.6998 13.4862L40.689 14.1436L39.6783 14.8009L36.7839 11.8124C35.192 10.1687 33.8553 8.82667 33.8136 8.83C33.7719 8.83334 32.816 9.93619 31.6895 11.2809ZM36.1099 12.0353C37.5783 13.5861 38.1066 14.2262 37.7291 13.997C36.7608 13.4095 36.5795 13.4403 35.6177 14.3559C35.1386 14.8123 34.6947 15.1856 34.6312 15.1856C34.5678 15.1856 34.36 15.0394 34.1694 14.8607L33.823 14.5357L32.9303 14.8607C32.4393 15.0394 31.9691 15.1856 31.8855 15.1856C31.8019 15.1856 31.6701 14.964 31.5927 14.6934C31.4687 14.2595 31.3776 14.1922 30.8226 14.1254L30.1929 14.0497L32.0277 11.8916C33.0369 10.7045 33.8778 9.7334 33.8964 9.7334C33.9151 9.7334 34.9112 10.7692 36.1099 12.0353ZM42.8553 14.9045C43.8382 15.7591 43.9732 15.9182 43.9767 16.2253C43.9785 16.386 43.8904 16.374 43.5805 16.1715C43.2724 15.9699 43.1557 15.9537 43.0651 16.1C43.0004 16.2045 42.8051 16.2519 42.6286 16.2058C42.4288 16.1537 42.26 16.2105 42.1774 16.3578C42.026 16.6278 41.8756 16.5479 40.8664 15.6601C40.415 15.2631 40.3344 15.1226 40.5019 15.0251C40.6201 14.9563 40.9559 14.729 41.248 14.5201C41.54 14.3113 41.8195 14.137 41.8691 14.1329C41.9187 14.1288 42.3625 14.476 42.8553 14.9045ZM28.0641 15.4311C28.8481 16.066 29.7114 16.7645 29.9826 16.9834C30.2538 17.2024 30.4757 17.4246 30.4757 17.4772C30.4757 17.5297 30.1706 17.6495 29.7978 17.7433C29.4014 17.8429 29.0527 18.0391 28.9581 18.2155C28.7097 18.6788 28.212 18.5974 28.0254 18.0631C27.8453 17.5471 27.842 17.5456 27.4572 17.7854C27.2265 17.9293 27.099 17.9032 26.7693 17.6444C26.431 17.3786 26.2911 17.3522 25.9142 17.4834C25.322 17.6895 24.7103 17.323 24.7103 16.7622C24.7103 16.3421 24.6155 16.3446 23.5111 16.796C23.2272 16.912 22.9763 16.9886 22.9537 16.966C22.8965 16.9088 26.3973 14.2769 26.5305 14.2769C26.5901 14.2769 27.2802 14.7964 28.0641 15.4311ZM15.2277 27.5946C13.7067 27.9643 12.8194 29.0413 12.567 30.8247C12.2071 33.3661 13.5374 35.4798 15.4967 35.4798C16.3759 35.4798 16.8836 35.2884 17.3576 34.7777L17.7311 34.3755L17.7302 35.9499C17.7293 37.7254 17.5481 38.5853 17.1276 38.8099C16.3263 39.2381 15.3036 38.6857 15.3036 37.8249C15.3036 37.1437 15.748 36.8175 16.4158 37.0087C17.0145 37.1802 16.9725 37.1868 16.9725 36.9186C16.9725 36.4799 16.3947 36.0856 15.7519 36.0856C14.8423 36.0856 14.3932 36.5889 14.3932 37.6085C14.3932 38.2974 14.4548 38.4492 14.9256 38.9191C15.455 39.4475 15.4644 39.4503 16.6096 39.3924C17.7062 39.3371 17.7851 39.3085 18.2602 38.791C18.94 38.0504 19.0966 37.1882 19.0966 34.1851V31.6936H18.4926C17.9557 31.6936 17.879 31.7398 17.803 32.1101C17.4375 33.8867 16.9249 34.6014 16.0156 34.6014C14.7965 34.6014 14.0561 33.485 14.0561 31.647C14.0561 30.3071 14.2981 29.4546 14.8778 28.7526C15.8944 27.5216 17.7311 27.7929 17.7311 29.1739C17.7311 29.3817 17.627 29.6555 17.4999 29.7825C17.2929 29.9892 17.2998 30.0298 17.5659 30.1718C18.2679 30.547 18.7932 30.1615 18.7932 29.2712C18.7932 27.9208 17.121 27.1345 15.2277 27.5946ZM41.6133 28.4374C41.3832 28.7882 41.3832 28.8439 41.6133 29.1947C41.7796 29.4481 42.0011 29.5733 42.2832 29.5733C42.8102 29.5733 43.0686 29.3242 43.0686 28.8161C43.0686 28.3079 42.8102 28.0588 42.2832 28.0588C42.0011 28.0588 41.7796 28.1841 41.6133 28.4374ZM34.0665 28.3113C34.0108 28.3667 33.9653 29.0248 33.9653 29.7735C33.9653 31.0827 33.9547 31.1252 33.6878 30.8841C33.0377 30.2968 31.49 30.7608 31.0102 31.6869C30.7739 32.1431 30.8682 32.3014 31.1868 31.9833C31.3056 31.8647 31.3845 31.8716 31.4689 32.0079C31.541 32.1242 31.4534 32.3043 31.2416 32.4754C30.8282 32.8096 30.6275 32.8298 30.6275 32.5372C30.6275 32.3648 30.5267 32.3494 30.1354 32.4615C29.5209 32.6373 29.5654 32.6446 29.5654 32.3691C29.5654 31.9221 28.9801 30.9948 28.5842 30.8147C28.365 30.7151 27.8817 30.6335 27.5105 30.6335C26.9477 30.6335 26.7341 30.7248 26.228 31.1811C25.8939 31.4823 25.6206 31.8367 25.6206 31.9686C25.6206 32.1552 25.6611 32.1681 25.8027 32.0268C26.0471 31.7828 26.2275 31.7973 26.2275 32.0613C26.2275 32.1802 26.0134 32.4446 25.7519 32.6491C25.3629 32.9531 25.2632 33.1552 25.2051 33.7592C24.9936 35.9559 26.6561 37.5541 28.3082 36.7423C29.053 36.3764 29.4035 35.7305 29.6217 34.3213C29.7722 33.35 29.8552 33.1442 30.1383 33.0395C30.4675 32.9179 30.4757 32.9417 30.4757 34.0138C30.4757 34.8522 30.5566 35.273 30.8171 35.7885C31.4525 37.0463 32.8664 37.336 33.7596 36.3916L34.1761 35.951L34.4454 36.3928C34.9165 37.1662 35.8805 37.1499 36.4784 36.3586L36.7449 36.006L37.153 36.4134C38.1442 37.4028 39.3584 37.0525 40.106 35.5613C40.4918 34.7915 40.5655 34.4494 40.616 33.1934C40.7006 31.094 40.2912 30.1326 39.4293 30.4057C38.7811 30.611 38.903 31.5057 39.5981 31.6444C40.0301 31.7307 40.0342 31.7419 40.0342 32.8243C40.0342 34.0243 39.7449 35.1972 39.3384 35.6457C38.9938 36.0258 38.2719 36.0232 38.0671 35.6413C37.9782 35.4753 37.9101 34.3263 37.9101 32.9909V30.6335H37.3032H36.6963V32.687C36.6963 33.9158 36.7531 34.7055 36.8376 34.6534C37.1049 34.4885 37.1588 34.8584 36.9401 35.3579L36.721 35.8585L36.7082 35.4041L36.6953 34.9498L36.3945 35.442C36.0242 36.0484 35.5366 36.0958 35.327 35.5457C35.2457 35.332 35.1791 33.5941 35.1791 31.6838V28.2103H34.6734C34.3952 28.2103 34.1221 28.2557 34.0665 28.3113ZM44.5353 28.3113C44.4796 28.3667 44.4341 29.827 44.4341 31.5562C44.4341 34.0433 44.4762 34.7106 44.6355 34.7494C44.792 34.7874 44.8028 34.9162 44.6837 35.3284L44.5308 35.8585L44.4265 35.3284C44.3692 35.0369 44.3134 34.9207 44.3024 35.0702C44.2914 35.2198 44.1059 35.5183 43.8904 35.7335C43.5247 36.0985 43.4812 36.1081 43.2455 35.8732C43.0345 35.663 42.9849 35.2095 42.9447 33.1274L42.8964 30.6335H42.2999H41.7031V33.2157C41.7031 36.041 41.828 36.5736 42.5547 36.8494C43.1788 37.0863 43.4839 37.0199 44.0486 36.5252C44.5024 36.1274 44.5984 36.0937 44.6792 36.3036C44.7315 36.4397 44.9759 36.6553 45.2222 36.7823C45.792 37.0766 46.4598 36.94 46.8457 36.4502L47.1369 36.0806L47.5945 36.5376C48.2794 37.2212 49.2026 37.0901 49.7233 36.2354L50.0056 35.7717L50.2662 36.1685C50.8366 37.0377 52.2487 37.1947 53.3552 36.512C53.8418 36.2118 54.7512 35.13 54.7512 34.8513C54.7512 34.5695 54.3344 34.745 54.1753 35.094C53.9525 35.5818 53.1665 35.9755 52.415 35.9755C51.9456 35.9755 51.7331 35.8833 51.4529 35.5581C50.9498 34.9743 51.0352 34.3858 51.6409 34.2611C52.8717 34.0079 53.6891 33.2129 53.6891 32.269C53.6891 31.1145 53.213 30.6453 52.0346 30.6383C51.279 30.6338 51.1713 30.6789 50.6635 31.2118C50.0791 31.8249 49.7802 32.5935 49.7397 33.5867C49.7016 34.5222 49.7324 34.7479 49.8856 34.6534C50.1102 34.5148 50.2373 34.8548 50.1261 35.297C50.0334 35.6657 50.0099 35.6773 49.868 35.4244C49.7218 35.1633 49.7008 35.1683 49.535 35.5023C49.2854 36.0046 48.6021 36.0688 48.4766 35.6016C48.4252 35.4097 48.3821 33.6681 48.381 31.7315L48.3789 28.2103H47.772H47.1651V31.4664C47.1651 33.9906 47.2077 34.7141 47.3548 34.6847C47.5629 34.6432 47.5324 35.2428 47.3065 35.6313C47.2099 35.7974 47.173 35.7364 47.1692 35.4041L47.1641 34.9498L46.8633 35.442C46.5233 35.9987 46.045 36.0888 45.8049 35.6413C45.7095 35.463 45.6479 33.9499 45.6479 31.7793V28.2103H45.1422C44.8639 28.2103 44.5909 28.2557 44.5353 28.3113ZM21.0394 31.0892C19.991 31.9518 19.6249 34.2935 20.3158 35.7184C20.9381 37.0012 22.5556 37.3642 23.5238 36.4382C24.0188 35.9648 24.4069 34.8294 24.4069 33.8542C24.4069 33.26 24.4519 33.1768 24.8469 33.0392C25.0889 32.955 25.3195 32.7613 25.3595 32.6087C25.4232 32.3653 25.3758 32.3473 24.9738 32.4624C24.4034 32.6256 24.3177 32.5732 24.2007 31.9898C24.1492 31.7328 23.9066 31.3224 23.6618 31.078C23.2802 30.6971 23.1004 30.6335 22.4049 30.6335C21.7264 30.6335 21.5025 30.7083 21.0394 31.0892ZM23.2573 31.5293C23.5002 31.7972 23.5017 31.8478 23.2774 32.1896C22.9931 32.6227 23.0945 33.005 23.5304 33.1431C23.8118 33.2323 23.8311 33.324 23.7434 34.1607C23.6012 35.5192 22.9937 36.2235 22.2116 35.9368C21.5952 35.7108 21.3295 35.1185 21.3366 33.985C21.3448 32.6892 21.5726 31.9482 22.0866 31.5446C22.5738 31.162 22.9203 31.1575 23.2573 31.5293ZM28.5232 31.5278C28.8705 31.8084 28.8726 31.8243 28.6026 32.1222C28.2523 32.5086 28.3266 32.9364 28.7781 33.1324C29.0966 33.2707 29.1186 33.3499 29.0295 34.0411C28.976 34.4576 28.8186 35.0369 28.6798 35.3284C28.4681 35.7729 28.338 35.8659 27.8722 35.9047C27.4613 35.9389 27.2389 35.8671 27.0166 35.6292C26.0411 34.5839 26.693 31.2393 27.8723 31.2393C28.0341 31.2393 28.3269 31.369 28.5232 31.5278ZM33.6878 31.4899C33.9238 31.703 33.965 31.9812 33.9631 33.3452C33.9606 35.0714 33.8113 35.5859 33.2289 35.8759C32.1356 36.4199 31.4314 34.9511 31.8412 32.9812C32.1304 31.5902 33.0113 30.8788 33.6878 31.4899ZM52.7485 31.421C52.8486 31.521 52.9305 31.8287 52.9305 32.1048C52.9305 32.7594 52.1472 33.6244 51.43 33.7618L50.9157 33.8602L51.019 33.2691C51.1528 32.5031 51.406 31.8366 51.6895 31.5043C51.9503 31.1985 52.4836 31.1566 52.7485 31.421ZM8.17265 41.7764C8.17265 41.8244 8.44484 42.5569 8.77756 43.4045C9.99786 46.5133 12.0827 49.6749 14.545 52.1513C18.6109 56.2404 23.3782 58.7215 29.1102 59.7316C31.3679 60.1293 35.3235 60.1616 37.5308 59.8002C45.8668 58.4351 52.6527 53.7077 56.8393 46.3489C57.4927 45.2006 58.8477 42.1156 58.8477 41.7764C58.8477 41.7285 47.4458 41.6893 33.5102 41.6893C19.5745 41.6893 8.17265 41.7285 8.17265 41.7764ZM30.2847 46.8751L33.5102 50.0922L36.7666 46.8442C38.5575 45.0578 40.057 43.6304 40.0987 43.6721C40.1404 43.7137 38.7092 45.2093 36.9181 46.9956L33.6619 50.2436L36.9605 53.5389C38.7747 55.3514 40.1921 56.8343 40.1101 56.8343C40.028 56.8343 38.5095 55.3865 36.7356 53.6173L33.5102 50.4002L30.2538 53.6482C28.4628 55.4346 26.9634 56.862 26.9216 56.8203C26.8799 56.7787 28.3111 55.2831 30.1022 53.4968L33.3584 50.2488L30.0599 46.9535C28.2456 45.141 26.8282 43.6581 26.9103 43.6581C26.9924 43.6581 28.5108 45.1058 30.2847 46.8751ZM34.6214 44.4373C34.7432 44.6309 34.6453 44.892 34.182 45.6097C33.8543 46.1175 33.5519 46.5331 33.5102 46.5331C33.3997 46.5331 32.2964 44.7966 32.2964 44.6229C32.2964 44.2568 32.7085 44.1017 33.5689 44.1441C34.2002 44.1752 34.5111 44.2618 34.6214 44.4373ZM32.9538 44.4658C32.9538 44.577 33.0438 44.6678 33.1538 44.6678C33.3031 44.6678 33.3113 44.6168 33.1858 44.4658C33.0934 44.3548 33.0034 44.2639 32.9858 44.2639C32.9682 44.2639 32.9538 44.3548 32.9538 44.4658ZM33.7942 44.529C33.6056 44.7692 33.6109 44.7745 33.8515 44.5862C34.1043 44.3883 34.1846 44.2639 34.0597 44.2639C34.0283 44.2639 33.9087 44.3833 33.7942 44.529ZM34.182 55.337C34.9573 56.538 34.8531 56.7585 33.5102 56.7585C32.1673 56.7585 32.063 56.538 32.8383 55.337C33.1661 54.8292 33.4684 54.4136 33.5102 54.4136C33.5519 54.4136 33.8543 54.8292 34.182 55.337Z" fill="#2E2E2E"/>
</svg>
