<svg width="20" height="20" viewBox="0 0 20 20" fill="none" xmlns="http://www.w3.org/2000/svg">
<path d="M19.4727 18.1274L13.1323 11.7871C14.1162 10.5151 14.6484 8.95996 14.6484 7.32422C14.6484 5.36621 13.8843 3.53027 12.5024 2.146C11.1206 0.761719 9.27979 0 7.32422 0C5.36865 0 3.52783 0.76416 2.146 2.146C0.761719 3.52783 0 5.36621 0 7.32422C0 9.27979 0.76416 11.1206 2.146 12.5024C3.52783 13.8867 5.36621 14.6484 7.32422 14.6484C8.95996 14.6484 10.5127 14.1162 11.7847 13.1348L18.125 19.4727C18.1436 19.4913 18.1657 19.506 18.19 19.5161C18.2143 19.5262 18.2403 19.5313 18.2666 19.5313C18.2929 19.5313 18.3189 19.5262 18.3432 19.5161C18.3675 19.506 18.3896 19.4913 18.4082 19.4727L19.4727 18.4106C19.4913 18.3921 19.506 18.37 19.5161 18.3457C19.5262 18.3214 19.5313 18.2953 19.5313 18.269C19.5313 18.2427 19.5262 18.2167 19.5161 18.1924C19.506 18.1681 19.4913 18.146 19.4727 18.1274ZM11.1914 11.1914C10.1563 12.2241 8.78418 12.793 7.32422 12.793C5.86426 12.793 4.49219 12.2241 3.45703 11.1914C2.42432 10.1563 1.85547 8.78418 1.85547 7.32422C1.85547 5.86426 2.42432 4.48975 3.45703 3.45703C4.49219 2.42432 5.86426 1.85547 7.32422 1.85547C8.78418 1.85547 10.1587 2.42188 11.1914 3.45703C12.2241 4.49219 12.793 5.86426 12.793 7.32422C12.793 8.78418 12.2241 10.1587 11.1914 11.1914Z" fill="white"/>
</svg>
