<svg width="" height="" viewBox="0 0 36 42" fill="none" xmlns="http://www.w3.org/2000/svg">
<path fill-rule="evenodd" clip-rule="evenodd" d="M13.6603 1.78967C11.5098 2.76845 7.70458 4.48674 5.20418 5.60825C2.70378 6.72977 0.517073 7.78817 0.344586 7.96033C-0.129755 8.43378 -0.108083 23.2933 0.370727 25.8122C1.33952 30.9098 3.65961 34.3441 8.14898 37.3257C10.0349 38.5781 14.5029 40.7538 16.9271 41.6004L18.0715 42L20.502 41.0368C28.6133 37.8228 32.934 34.2197 34.7867 29.125C35.8882 26.0963 36.0035 24.8796 35.9999 16.3348C35.9979 11.9446 35.9139 8.22303 35.8129 8.06425C35.5839 7.70387 18.5014 -0.013808 17.9633 1.85558e-05C17.7471 0.00559378 15.8108 0.81088 13.6603 1.78967ZM23.5071 5.57458C26.5091 6.92914 29.9041 8.45764 31.0514 8.97145L33.1378 9.90586L33.0422 17.4922C32.9541 24.488 32.9088 25.2059 32.4579 26.7152C31.843 28.7736 31.1531 30.1375 29.9743 31.6263C28.2588 33.7924 24.3461 36.2887 19.7959 38.1199L17.9995 38.8429L15.9976 38.0215C9.93485 35.5341 6.30345 32.7933 4.62036 29.4352C3.19867 26.599 3.10014 25.8751 2.99468 17.4962L2.89906 9.91389L10.3464 6.53597C14.4425 4.6783 17.8512 3.14779 17.9213 3.13508C17.9915 3.12259 20.5051 4.22024 23.5071 5.57458ZM16.6391 9.11217C15.549 9.39004 13.9595 10.4021 13.3397 11.2131C12.4665 12.3556 12.0963 13.4631 12.0963 14.9314C12.0963 16.0266 12.0219 16.3056 11.7053 16.399C10.5913 16.7279 9.71366 17.3454 9.35371 18.0537C9.00069 18.7486 8.96383 19.4277 9.01857 24.2389L9.08001 29.6435L9.92122 30.4831L10.7624 31.3228L17.4061 31.3926C21.5644 31.4361 24.3458 31.3754 24.8412 31.2302C25.2762 31.1027 25.9297 30.6885 26.2935 30.3101L26.9544 29.6219L27.0158 24.228C27.0706 19.4272 27.0337 18.7484 26.6807 18.0537C26.3207 17.3454 25.4431 16.7279 24.3291 16.399C24.0111 16.3053 23.9372 16.0217 23.9332 14.8828C23.9251 12.5782 22.7859 10.6902 20.7955 9.68352C19.6183 9.08809 17.7446 8.83051 16.6391 9.11217ZM19.9438 12.6081C20.6204 13.21 21.0335 14.2994 21.0335 15.482V16.4927H18.0172H15.0009V15.3665C15.0009 13.1658 16.2322 11.9419 18.2931 12.0938C19.032 12.1484 19.6397 12.3376 19.9438 12.6081ZM24.1103 23.9077L24.0498 28.4236H18.0172H11.9846L11.924 23.9077L11.8637 19.3918H18.0172H24.1707L24.1103 23.9077ZM16.9128 23.0097C16.1911 24.038 16.823 25.413 18.0172 25.413C19.2407 25.413 19.9523 23.688 19.0608 22.883C18.4618 22.3417 17.3348 22.4082 16.9128 23.0097Z" fill="black"/>
<path fill-rule="evenodd" clip-rule="evenodd" d="M13.6603 1.78967C11.5098 2.76845 7.70458 4.48674 5.20418 5.60825C2.70378 6.72977 0.517073 7.78817 0.344586 7.96033C-0.129755 8.43378 -0.108083 23.2933 0.370727 25.8122C1.33952 30.9098 3.65961 34.3441 8.14898 37.3257C10.0349 38.5781 14.5029 40.7538 16.9271 41.6004L18.0715 42L20.502 41.0368C28.6133 37.8228 32.934 34.2197 34.7867 29.125C35.8882 26.0963 36.0035 24.8796 35.9999 16.3348C35.9979 11.9446 35.9139 8.22303 35.8129 8.06425C35.5839 7.70387 18.5014 -0.013808 17.9633 1.85558e-05C17.7471 0.00559378 15.8108 0.81088 13.6603 1.78967ZM23.5071 5.57458C26.5091 6.92914 29.9041 8.45764 31.0514 8.97145L33.1378 9.90586L33.0422 17.4922C32.9541 24.488 32.9088 25.2059 32.4579 26.7152C31.843 28.7736 31.1531 30.1375 29.9743 31.6263C28.2588 33.7924 24.3461 36.2887 19.7959 38.1199L17.9995 38.8429L15.9976 38.0215C9.93485 35.5341 6.30345 32.7933 4.62036 29.4352C3.19867 26.599 3.10014 25.8751 2.99468 17.4962L2.89906 9.91389L10.3464 6.53597C14.4425 4.6783 17.8512 3.14779 17.9213 3.13508C17.9915 3.12259 20.5051 4.22024 23.5071 5.57458Z" fill="#EA0000"/>
</svg>
