<svg width="" height="" viewBox="0 0 60 60" fill="none" xmlns="http://www.w3.org/2000/svg">
<path fill-rule="evenodd" clip-rule="evenodd" d="M28.6904 0.0205306C26.0807 0.137593 23.5369 0.579066 21.0854 1.34037C16.1188 2.88272 11.5945 5.73126 8.0365 9.55613C5.52121 12.2601 3.53264 15.3875 2.1539 18.8077C0.978485 21.7235 0.271737 24.829 0.0621387 27.999C-0.0207161 29.2521 -0.0207163 30.7194 0.0621586 32.0018C0.580582 40.0245 4.34487 47.5253 10.4995 52.7994C12.7043 54.6888 15.2232 56.2776 17.8653 57.4457C22.5374 59.5112 27.6739 60.3449 32.8032 59.8705C37.0742 59.4754 41.1836 58.1724 44.9233 56.0276C48.9139 53.7388 52.355 50.528 54.928 46.6922C56.4257 44.4593 57.6306 42.0056 58.471 39.4767C59.2136 37.242 59.6866 34.9424 59.8893 32.5822C60.2277 28.6394 59.7882 24.6624 58.5995 20.9139C57.1566 16.3636 54.6237 12.1993 51.235 8.80619C46.0673 3.63181 39.267 0.539198 32.0026 0.0597783C31.0942 -0.000164139 29.5577 -0.018377 28.6904 0.0205306ZM27.8749 16.9961L29.7411 18.8624V25.0669V31.2714L27.7348 33.2777L25.7284 35.2841H21.6857H17.643L16.8552 32.9214C16.4219 31.6219 16.0707 30.5556 16.0748 30.5518C16.0788 30.5479 16.7428 30.769 17.5503 31.0431L19.0185 31.5415H20.9977H22.9769L23.6972 31.1812L24.4175 30.8209L24.7778 30.1005L25.1381 29.3802L25.1388 24.9919L25.1395 20.6037L24.8536 20.0262L24.5677 19.4488L23.9925 19.1606L23.4172 18.8725H21.9713H20.5254L20.0899 19.3076L19.6544 19.7428V21.7494V23.7561L20.2248 24.8968C20.5385 25.5241 20.7952 26.0465 20.7952 26.0575C20.7952 26.0709 19.7384 26.0776 17.6431 26.0776C15.5453 26.0776 14.491 26.0709 14.491 26.0575C14.491 26.0464 14.6802 25.6592 14.9113 25.197L15.3316 24.3566V22.4542V20.5519L15.1907 19.7081L15.0497 18.8642L16.9168 16.997L18.7838 15.1298H22.3962H26.0086L27.8749 16.9961ZM43.6474 17.4928C44.0806 18.7924 44.4318 19.8587 44.4279 19.8623C44.424 19.8659 43.7605 19.6447 42.9534 19.3707L41.486 18.8725L39.5011 18.8716L37.5163 18.8708L36.8034 19.2269L36.0904 19.583L35.7277 20.3086L35.3648 21.0342V25.4273V29.8205L35.653 30.3958L35.9412 30.9711L36.5137 31.2563L37.0862 31.5415H38.5322H39.9782L40.413 31.1062L40.8476 30.6708L40.848 28.6666L40.8484 26.6624L40.2703 25.5044L39.6922 24.3464L42.8453 24.3413C44.5795 24.3385 46.0034 24.3412 46.0095 24.3473C46.0156 24.3534 45.8296 24.7408 45.596 25.2081L45.1713 26.0577V27.9659V29.8742L45.3117 30.7125L45.4521 31.5508L43.5856 33.4175L41.7191 35.2841H38.1067H34.4944L32.6281 33.4178L30.7618 31.5516V25.3472V19.1428L32.7681 17.1363L34.7744 15.1298H38.8172H42.8599L43.6474 17.4928ZM13.449 40.3927C13.8109 41.4737 13.8658 41.651 13.8343 41.6384C13.8157 41.631 13.6301 41.5672 13.4218 41.4967L13.0431 41.3684H12.5063H11.9696L11.7629 41.4704L11.5562 41.5724L11.4626 41.7609L11.369 41.9494V43.1797V44.4099L11.444 44.5624C11.5181 44.713 11.521 44.716 11.6737 44.7929L11.8284 44.8709H12.2335H12.6386L12.7543 44.7564L12.87 44.642V44.0757V43.5094L12.7199 43.2097C12.6373 43.0449 12.5698 42.9054 12.5698 42.8997C12.5698 42.8941 12.957 42.8895 13.4303 42.8895C13.9036 42.8895 14.2909 42.8941 14.2909 42.8999C14.2909 42.9055 14.2414 43.0089 14.1808 43.1297L14.0708 43.3492L14.0709 43.8849C14.0711 44.3188 14.0783 44.4624 14.109 44.6407C14.1298 44.7618 14.1431 44.8654 14.1387 44.8709C14.1342 44.8764 13.8987 45.1128 13.6155 45.3963L13.1004 45.9116H12.1097H11.1191L10.6036 45.3964L10.0881 44.8812V43.1594V41.4375L10.6443 40.8826L11.2005 40.3277H12.3139H13.4272L13.449 40.3927ZM18.7987 40.8429L19.3142 41.3581V43.1194V44.8806L18.799 45.3961L18.2838 45.9116H17.2525H16.2212L15.6961 45.3852L15.1711 44.8587L15.1717 43.119L15.1723 41.3793L15.6968 40.8535L16.2212 40.3277H17.2522H18.2833L18.7987 40.8429ZM24.2123 40.8529L24.7378 41.3782V43.1294V44.8806L24.2226 45.3961L23.7074 45.9116H22.6667H21.626L21.1106 45.3964L20.5951 44.8812V43.13V41.3787L21.1203 40.8532L21.6455 40.3277H22.6662H23.6868L24.2123 40.8529ZM29.6659 40.8829L30.2214 41.4382V43.1194V44.8006L29.6662 45.3561L29.111 45.9116H27.5648C26.6047 45.9116 26.0187 45.9045 26.0187 45.8927C26.0187 45.8823 26.0547 45.7276 26.0987 45.5489L26.1788 45.2241V43.1152V41.0064L26.0987 40.6879C26.0547 40.5128 26.0187 40.3601 26.0187 40.3486C26.0187 40.3342 26.5029 40.3277 27.5645 40.3277H29.1104L29.6659 40.8829ZM32.3757 40.3927C32.3693 40.4285 32.3496 40.5725 32.3318 40.7126L32.2995 40.9674L32.4927 41.6633C32.5989 42.046 32.7763 42.6834 32.8868 43.0796C32.9973 43.4759 33.0987 43.8722 33.1122 43.9603L33.1367 44.1204L33.1517 44.0003C33.1599 43.9342 33.3474 43.2272 33.5683 42.4292L33.9699 40.9781L33.9367 40.698C33.9185 40.5438 33.9036 40.3975 33.9037 40.3727L33.9039 40.3277H34.6761C35.1008 40.3277 35.4451 40.3345 35.4413 40.3427C35.4375 40.3509 35.3678 40.4883 35.2863 40.6479C35.1266 40.9609 35.1722 40.8183 33.839 45.1764L33.6139 45.9123L33.0952 45.907L32.5765 45.9016L32.1715 44.5807C31.9487 43.8542 31.609 42.7462 31.4166 42.1185C31.0848 41.0361 31.0589 40.9615 30.9143 40.6727C30.8304 40.5053 30.7618 40.3591 30.7618 40.3479C30.7618 40.3346 31.0394 40.3277 31.5746 40.3277H32.3873L32.3757 40.3927ZM37.4662 40.3541C37.4662 40.3686 37.4348 40.5014 37.3965 40.6493L37.3267 40.9181L37.3261 43.1143L37.3255 45.3106L37.3959 45.5901C37.4346 45.7438 37.4662 45.879 37.4662 45.8906C37.4662 45.9049 37.2268 45.9116 36.7154 45.9116H35.9645L35.9771 45.8566C35.984 45.8263 36.0202 45.6782 36.0575 45.5274L36.1254 45.2532V43.1198V40.9864L36.0453 40.6679C36.0013 40.4928 35.9652 40.3446 35.9652 40.3386C35.9652 40.3326 36.303 40.3277 36.7157 40.3277C37.3236 40.3277 37.4662 40.3327 37.4662 40.3541ZM40.2881 40.3585C40.2881 40.3755 40.2476 40.5507 40.198 40.748L40.108 41.1066V42.935V44.7634L40.1641 44.8171L40.2202 44.8709H40.8401H41.46L41.8757 44.732C42.205 44.6219 42.2891 44.6001 42.2806 44.6269C42.2746 44.6455 42.1766 44.94 42.0627 45.2812L41.8557 45.9016L40.3 45.9068C38.8243 45.9116 38.7448 45.9101 38.7548 45.8767C38.7606 45.8574 38.7972 45.7137 38.8363 45.5574L38.9072 45.2732V43.1197V40.9661L38.8363 40.6819C38.7972 40.5256 38.7606 40.382 38.7549 40.3627C38.745 40.3298 38.7905 40.3277 39.5163 40.3277C40.198 40.3277 40.2881 40.3313 40.2881 40.3585ZM44.2707 40.3585C44.2707 40.3755 44.2302 40.5507 44.1807 40.748L44.0906 41.1066V42.935V44.7634L44.1468 44.8171L44.2029 44.8709H44.8227H45.4426L45.8583 44.732C46.1876 44.6219 46.2718 44.6001 46.2632 44.6269C46.2572 44.6455 46.1592 44.94 46.0454 45.2812L45.8384 45.9016L44.2826 45.9068C42.807 45.9116 42.7275 45.9101 42.7374 45.8767C42.7432 45.8574 42.7799 45.7137 42.8189 45.5574L42.8898 45.2732V43.1197V40.9661L42.8189 40.6819C42.7799 40.5256 42.7432 40.382 42.7375 40.3627C42.7276 40.3298 42.7731 40.3277 43.4989 40.3277C44.1806 40.3277 44.2707 40.3313 44.2707 40.3585ZM50.093 40.9281C50.2013 41.2528 50.2882 41.5207 50.286 41.5233C50.2837 41.5259 50.1207 41.4741 49.9237 41.4082L49.5655 41.2884H48.856C48.2238 41.2884 48.1425 41.292 48.1099 41.3215C48.0763 41.3519 48.0733 41.3953 48.0733 41.8453C48.0733 42.2738 48.0775 42.3406 48.1064 42.3726C48.1359 42.4052 48.1753 42.4092 48.4724 42.4092H48.8052L49.1039 42.3091C49.2682 42.2541 49.4052 42.209 49.4084 42.209C49.4116 42.209 49.4141 42.5107 49.4141 42.8795C49.4141 43.2483 49.407 43.55 49.3983 43.55C49.3896 43.55 49.2627 43.5098 49.1163 43.4607L48.8502 43.3714L48.5003 43.3689C48.1934 43.3667 48.1456 43.3706 48.1118 43.4012C48.0752 43.4343 48.0733 43.4701 48.0733 44.0997V44.7634L48.1294 44.8171L48.1855 44.8709H48.8854H49.5853L50.0001 44.7323C50.2282 44.6561 50.4147 44.5953 50.4145 44.5972C50.4144 44.5991 50.3167 44.8934 50.1974 45.2512L49.9806 45.9016L48.3461 45.9068L46.7115 45.9119L46.7244 45.8567C46.7314 45.8264 46.7676 45.6787 46.8048 45.5286L46.8725 45.2557V43.121V40.9864L46.7924 40.6679C46.7484 40.4928 46.7124 40.3445 46.7124 40.3385C46.7124 40.3324 47.4287 40.3297 48.3041 40.3326L49.8959 40.3377L50.093 40.9281ZM16.7664 41.3702L16.6102 41.4501L16.5313 41.6133L16.4523 41.7766V43.084V44.3914L16.5325 44.551C16.6125 44.71 16.6132 44.7108 16.7722 44.7907L16.9318 44.8709H17.2529H17.574L17.7335 44.7907C17.8925 44.7108 17.8932 44.71 17.9732 44.551L18.0534 44.3914V43.0881V41.7848L17.9707 41.6155L17.888 41.4463L17.731 41.3673L17.574 41.2884L17.2483 41.2894L16.9226 41.2904L16.7664 41.3702ZM22.1826 41.3733L22.0191 41.4559L21.9475 41.6106L21.8759 41.7653V43.0876V44.4099L21.951 44.5624C22.0251 44.713 22.028 44.716 22.1807 44.7929L22.3353 44.8709H22.6664H22.9975L23.1522 44.7929C23.3049 44.716 23.3078 44.713 23.3819 44.5624L23.457 44.4099V43.0852V41.7605L23.3855 41.6083L23.3141 41.456L23.1451 41.3722L22.9761 41.2884L22.6611 41.2896L22.3462 41.2907L22.1826 41.3733ZM27.4431 41.3347L27.3996 41.381V43.062V44.743L27.4656 44.8069L27.5316 44.8709H27.9463H28.3609L28.5606 44.7707L28.7602 44.6705L28.8604 44.4709L28.9606 44.2712V43.0796V41.8881L28.8604 41.6884L28.7602 41.4887L28.5606 41.3886L28.3609 41.2884H27.9238C27.4927 41.2884 27.486 41.289 27.4431 41.3347ZM28.7205 49.7844L30.1713 51.2354L31.6269 49.7799C32.7897 48.6171 33.0874 48.3294 33.1074 48.3494C33.1273 48.3693 32.8396 48.6671 31.6769 49.8299L30.2214 51.2855L31.6724 52.7365C32.4705 53.5345 33.1204 54.1965 33.1167 54.2075C33.113 54.2185 33.1 54.2275 33.0878 54.2275C33.0755 54.2275 32.4501 53.6151 31.6979 52.8666C30.9457 52.118 30.2921 51.4698 30.2454 51.426L30.1605 51.3465L28.7105 52.7965C27.552 53.9549 27.2554 54.2415 27.2355 54.2215C27.2155 54.2016 27.5012 53.9059 28.6559 52.751C29.4509 51.9559 30.1014 51.2956 30.1014 51.2838C30.1014 51.2719 29.4497 50.6128 28.6531 49.8191C27.295 48.4658 27.1707 48.3334 27.2585 48.3334C27.2646 48.3334 27.9225 48.9863 28.7205 49.7844ZM30.4886 48.5584C30.4801 48.5721 30.4246 48.6281 30.3653 48.6828C30.2661 48.7743 30.25 48.7821 30.1654 48.7788C30.0814 48.7756 30.0628 48.7648 29.9525 48.6544L29.8316 48.5335H30.1678C30.431 48.5335 30.5006 48.5389 30.4886 48.5584ZM29.9212 48.6636C29.981 48.7241 30.019 48.7741 30.0056 48.7745C29.9922 48.775 29.9002 48.7754 29.8012 48.7754C29.7021 48.7754 29.6158 48.775 29.6095 48.7745C29.5938 48.7734 29.7826 48.5535 29.7993 48.5535C29.8066 48.5535 29.8615 48.6031 29.9212 48.6636ZM30.7418 48.778C30.7418 48.7866 30.6472 48.7937 30.5316 48.7937C30.4161 48.7937 30.3215 48.7872 30.3215 48.7793C30.3215 48.7714 30.3685 48.7174 30.4259 48.6592L30.5303 48.5535L30.6361 48.6579C30.6942 48.7153 30.7418 48.7694 30.7418 48.778ZM30.7092 48.8387C30.7011 48.8525 30.5781 49.0382 30.436 49.2514C30.2213 49.5737 30.1733 49.6345 30.1518 49.6117C30.1163 49.5741 29.621 48.8406 29.621 48.8257C29.621 48.8191 29.8693 48.8137 30.1726 48.8137C30.6084 48.8137 30.721 48.8189 30.7092 48.8387ZM30.4591 53.5217C30.6036 53.7389 30.7218 53.9212 30.7218 53.9269C30.7218 53.9327 30.4741 53.9373 30.1714 53.9373C29.8687 53.9373 29.621 53.9317 29.621 53.9248C29.621 53.8939 30.1708 53.0982 30.1828 53.1117C30.1903 53.12 30.3146 53.3045 30.4591 53.5217ZM30.0213 53.9757C30.0213 53.9858 29.9709 54.0383 29.9092 54.0924L29.7971 54.1908L29.699 54.0871C29.6451 54.0301 29.601 53.9776 29.601 53.9704C29.601 53.9632 29.6956 53.9573 29.8112 53.9573C29.9267 53.9573 30.0213 53.9656 30.0213 53.9757ZM30.3872 54.073C30.4501 54.1366 30.5016 54.1952 30.5016 54.2031C30.5016 54.211 30.353 54.2175 30.1714 54.2175C29.9898 54.2175 29.8412 54.2117 29.8412 54.2046C29.8412 54.1975 29.8966 54.139 29.9643 54.0745C30.0781 53.9663 30.0945 53.9573 30.1801 53.9573C30.2664 53.9573 30.2806 53.9653 30.3872 54.073ZM30.7418 53.9717C30.7418 53.9796 30.6948 54.0337 30.6374 54.0918L30.533 54.1976L30.4272 54.0932C30.3691 54.0357 30.3215 53.9817 30.3215 53.973C30.3215 53.9644 30.4161 53.9573 30.5316 53.9573C30.6472 53.9573 30.7418 53.9638 30.7418 53.9717Z" fill="black"/>
</svg>
