<svg width="" height="" viewBox="0 0 16 31" fill="none" xmlns="http://www.w3.org/2000/svg">
<path d="M2.06296 0.36747L15.6284 14.5652C15.8667 14.8146 16 15.1491 16 15.4973C16 15.8456 15.8667 16.18 15.6284 16.4294L2.06296 30.6325C1.95198 30.7488 1.81929 30.8413 1.67271 30.9044C1.52614 30.9675 1.36866 31 1.20956 31C1.05047 31 0.892986 30.9675 0.746413 30.9044C0.599839 30.8413 0.467145 30.7488 0.356161 30.6325C0.12783 30.394 8.83108e-07 30.0739 8.83108e-07 29.7405C8.83108e-07 29.4071 0.12783 29.087 0.356161 28.8485L13.1127 15.4973L0.356161 2.14887C0.128613 1.9105 0.0012788 1.59091 0.0012788 1.25817C0.0012788 0.925431 0.128613 0.605841 0.356161 0.36747C0.467145 0.251176 0.599839 0.158744 0.746413 0.0956304C0.892986 0.0325165 1.05047 0 1.20956 0C1.36866 0 1.52614 0.0325165 1.67271 0.0956304C1.81929 0.158744 1.95198 0.251176 2.06296 0.36747Z" fill="black"/>
</svg>
