<svg width="" height="" viewBox="0 0 19 35" fill="none" xmlns="http://www.w3.org/2000/svg">
<path d="M2.44977 34.5851L18.5587 18.5554C18.8417 18.2738 19 17.8962 19 17.503C19 17.1098 18.8417 16.7322 18.5587 16.4507L2.44977 0.414883C2.31797 0.283583 2.1604 0.179224 1.98634 0.107967C1.81229 0.0367091 1.62528 -9.06166e-07 1.43636 -9.06166e-07C1.24743 -9.06166e-07 1.06042 0.0367091 0.886364 0.107967C0.712308 0.179224 0.554733 0.283583 0.422939 0.414883C0.151797 0.684149 -2.87288e-07 1.04562 -2.87288e-07 1.42202C-2.87288e-07 1.79842 0.151797 2.15989 0.422939 2.42915L15.5713 17.503L0.422939 32.5739C0.152727 32.843 0.0015176 33.2038 0.0015176 33.5795C0.0015176 33.9552 0.152727 34.316 0.422939 34.5851C0.554733 34.7164 0.712308 34.8208 0.886364 34.892C1.06042 34.9633 1.24743 35 1.43636 35C1.62528 35 1.81229 34.9633 1.98634 34.892C2.1604 34.8208 2.31797 34.7164 2.44977 34.5851V34.5851Z" fill="white"/>
</svg>
