<svg width="" height="" viewBox="0 0 41 41" fill="none" xmlns="http://www.w3.org/2000/svg">
<path fill-rule="evenodd" clip-rule="evenodd" d="M15.4313 0.383539C9.69517 1.82672 4.56233 6.02859 1.94398 11.4238C0.356606 14.6945 -0.128706 17.2186 0.0278564 21.3904C0.242018 27.0941 1.95317 31.0446 5.94013 35.0384C9.7641 38.8695 13.8117 40.6871 19.1241 40.9588C22.7891 41.146 25.7392 40.6982 28.2957 39.5662C34.7196 36.7213 38.7694 31.9771 40.4475 25.3293C41.3403 21.7916 41.1347 17.0158 39.9496 13.7734C37.6836 7.57276 33.5054 3.33283 27.4096 1.04804C25.2202 0.227618 24.4711 0.10546 21.0957 0.0195198C18.4155 -0.0489256 16.7153 0.0603417 15.4313 0.383539ZM25.2763 3.61306C32.8106 5.90367 37.9468 12.7369 37.9468 20.4696C37.9468 25.267 36.2853 29.2003 32.7478 32.7785C29.2482 36.318 25.3624 37.9647 20.5096 37.9647C13.6714 37.9647 7.84216 34.3634 4.74371 28.2248C2.37628 23.5343 2.42163 17.2782 4.85768 12.514C7.86422 6.63355 13.7489 3.02099 20.3742 2.98845C22.3672 2.97863 23.7821 3.15911 25.2763 3.61306ZM18.0319 6.65166C14.756 7.25447 11.9109 9.19028 10.6217 11.6942C10.121 12.6663 10.0294 13.3068 10.1391 15.0704C10.2136 16.2675 10.3646 17.4541 10.4749 17.7073C10.6113 18.0207 10.3251 18.3945 9.57874 18.8782C8.14763 19.8051 7.18589 21.9039 7.45643 23.5086C7.74964 25.2461 8.68563 26.6082 9.58671 26.6082C10.7461 26.6082 11.0365 25.7642 10.3447 24.4057C10.023 23.7737 9.75951 23.0543 9.75951 22.8075C9.75951 22.0519 11.2522 20.5301 12.3494 20.1676C13.9125 19.6508 14.059 19.3205 13.5669 17.4209C12.5531 13.5051 14.9555 10.956 19.8965 10.7053C22.71 10.5626 24.8523 11.3403 26.3483 13.0469C27.3067 14.1404 27.3067 14.1414 27.1161 16.8322L26.9256 19.524L28.2739 20.1216C30.043 20.9055 30.7238 21.9448 30.4609 23.4601C30.0078 26.073 30.0678 26.4471 30.9591 26.5502C31.6052 26.6248 31.8816 26.4563 32.2349 25.7722C33.507 23.3078 32.8991 20.6513 30.6922 19.0329C29.5366 18.1855 29.52 18.1456 29.8825 17.0934C31.2462 13.1353 28.94 9.03221 24.3939 7.32844C22.4052 6.58322 19.8699 6.31342 18.0319 6.65166ZM18.7905 22.14C18.348 22.7213 17.735 23.8606 17.428 24.6721L16.8704 26.1479L14.987 26.3326C13.5642 26.472 12.789 26.7451 11.8147 27.4502C8.92124 29.544 10.6054 30.8172 17.8021 31.9758C18.9286 32.1572 18.951 32.1873 18.951 33.5172C18.951 34.5596 19.0929 34.95 19.5638 35.2023C20.7293 35.8272 21.7085 34.8373 21.7085 33.0344C21.7085 32.354 21.8705 32.1149 22.3978 32.0176C22.7768 31.9473 23.9834 31.7257 25.0787 31.525C27.3925 31.1005 29.8674 30.1091 30.0951 29.5152C30.5507 28.3258 27.3655 26.3013 25.0382 26.3013H23.6595L22.9518 24.5908C22.1037 22.5405 20.9459 21.0835 20.1649 21.0835C19.8515 21.0835 19.2329 21.5589 18.7905 22.14Z" fill="black"/>
<path fill-rule="evenodd" clip-rule="evenodd" d="M15.4313 0.383539C9.69517 1.82672 4.56233 6.02859 1.94398 11.4238C0.356606 14.6945 -0.128706 17.2186 0.0278564 21.3904C0.242018 27.0941 1.95317 31.0446 5.94013 35.0384C9.7641 38.8695 13.8117 40.6871 19.1241 40.9588C22.7891 41.146 25.7392 40.6982 28.2957 39.5662C34.7196 36.7213 38.7694 31.9771 40.4475 25.3293C41.3403 21.7916 41.1347 17.0158 39.9496 13.7734C37.6836 7.57276 33.5054 3.33283 27.4096 1.04804C25.2202 0.227618 24.4711 0.10546 21.0957 0.0195198C18.4155 -0.0489256 16.7153 0.0603417 15.4313 0.383539ZM25.2763 3.61306C32.8106 5.90367 37.9468 12.7369 37.9468 20.4696C37.9468 25.267 36.2853 29.2003 32.7478 32.7785C29.2482 36.318 25.3624 37.9647 20.5096 37.9647C13.6714 37.9647 7.84216 34.3634 4.74371 28.2248C2.37628 23.5343 2.42163 17.2782 4.85768 12.514C7.86422 6.63355 13.7489 3.02099 20.3742 2.98845C22.3672 2.97863 23.7821 3.15911 25.2763 3.61306Z" fill="#EA0000"/>
</svg>
